<?xml version="1.0" encoding="UTF-8" standalone="no"?>
<svg
   xmlns:dc="http://purl.org/dc/elements/1.1/"
   xmlns:cc="http://creativecommons.org/ns#"
   xmlns:rdf="http://www.w3.org/1999/02/22-rdf-syntax-ns#"
   xmlns:svg="http://www.w3.org/2000/svg"
   xmlns="http://www.w3.org/2000/svg"
   xmlns:sodipodi="http://sodipodi.sourceforge.net/DTD/sodipodi-0.dtd"
   xmlns:inkscape="http://www.inkscape.org/namespaces/inkscape"
   width="210mm"
   height="297mm"
   viewBox="0 0 210 297"
   version="1.1"
   id="svg2889"
   sodipodi:docname="drawing-in-inkscape.svg"
   inkscape:version="1.0.1 (3bc2e813f5, 2020-09-07)">
  <defs
     id="defs2883" />
  <sodipodi:namedview
     id="base"
     pagecolor="#ffffff"
     bordercolor="#ffffff"
     borderopacity="0"
     inkscape:pageopacity="0"
     inkscape:pageshadow="2"
     inkscape:zoom="1.4"
     inkscape:cx="513.73864"
     inkscape:cy="517.75873"
     inkscape:document-units="mm"
     inkscape:current-layer="layer1"
     inkscape:document-rotation="0"
     showgrid="false"
     inkscape:window-width="1207"
     inkscape:window-height="935"
     inkscape:window-x="683"
     inkscape:window-y="29"
     inkscape:window-maximized="0"
     inkscape:pagecheckerboard="true"
     inkscape:showpageshadow="true"
     borderlayer="true" />
  <metadata
     id="metadata2886">
    <rdf:RDF>
      <cc:Work
         rdf:about="">
        <dc:format>image/svg+xml</dc:format>
        <dc:type
           rdf:resource="http://purl.org/dc/dcmitype/StillImage" />
        <dc:title />
      </cc:Work>
    </rdf:RDF>
  </metadata>
  <g
     inkscape:label="Layer 1"
     inkscape:groupmode="layer"
     id="layer1">
    <path
       style="fill:none;stroke:#000000;stroke-width:0.262501px;stroke-linecap:butt;stroke-linejoin:miter;stroke-opacity:1"
       d="m 79.374998,134.54186 c 6.062057,4.05382 9.22077,-0.48811 14.363095,-1.86618 3.129957,-7.144 1.727664,-16.16126 16.630947,-17.85847 14.90328,-1.69721 13.88332,1.3717 18.14286,3.72052 0,0 0.50397,1.24017 0.75595,1.86026 2.30222,5.66532 16.42157,-0.84483 18.89881,4.09255 -5.5382,2.71765 -10.95004,5.18655 -20.41071,15.62616 0,0 -7.21132,9.35341 -7.55952,20.09079 -0.34821,10.73738 8.31547,36.46103 8.31547,36.46103 l 3.77977,21.57899 c 0,0 -2.20844,11.07327 -5.29167,16.37027 -3.08323,5.297 -13.22917,17.11436 -13.22917,17.11436 C 111.32781,230.7228 104.58174,218.36039 93.707053,206.93599 82.83237,195.51158 69.175539,178.6164 61.610117,174.34544 c -7.565422,-4.27097 4.826754,0.35963 11.339286,-6.32487 6.512532,-6.6845 2.373924,-10.86891 3.401787,-15.25412 -6.237644,-2.04117 -11.651682,-8.13584 -15.875,-20.09077 v 0 c 4.909291,11.38359 11.391673,8.2465 14.363094,8.18514 v 0 c 0,0 -10.89808,-14.30283 -6.425595,-10.41745 0.388349,0.33738 10.961309,5.21968 10.961309,4.09849 z"
       id="path2891"
       sodipodi:nodetypes="cczcscczcczczzzcccccsc" />
    <path
       style="fill:none;stroke:#000000;stroke-width:0.264583px;stroke-linecap:butt;stroke-linejoin:miter;stroke-opacity:1"
       d="m 125.48809,154.97024 4.15774,13.22916 c 0,0 29.79439,-17.61052 45.06088,-29.3859 8.54456,-6.5906 17.55905,-15.81515 19.56398,-31.50872 1.13401,-8.87643 2.7036,-16.742531 -1.50284,-23.772044 0.042,9.76107 -7.44928,17.089114 -12.85118,24.946434 2.27445,-29.168582 -3.74024,-28.197575 -19.27679,-51.026788 l 6.80357,23.812498 c 7.16766,36.82722 -10.7116,63.06458 -41.95536,73.70536 z"
       id="path2895"
       sodipodi:nodetypes="ccssccccc" />
    <path
       style="fill:none;stroke:#000000;stroke-width:0.264583px;stroke-linecap:butt;stroke-linejoin:miter;stroke-opacity:1"
       d="m 136.07143,195.79166 22.30059,-17.00892 c 17.71293,-7.72212 35.62494,-19.67243 39.87493,-36.89483 1.75818,-7.91768 5.02215,-18.1484 2.04066,-24.69272 -2.24216,-3.95308 -13.9491,22.00218 -16.59119,32.10541 -13.07986,10.81276 -22.49707,19.96633 -38.17558,25.70237 -6.96334,7.21587 -9.87854,11.34784 -9.44941,20.78869 z"
       id="path2899"
       sodipodi:nodetypes="ccccccc" />
    <path
       style="fill:none;stroke:#000000;stroke-width:0.264583px;stroke-linecap:butt;stroke-linejoin:miter;stroke-opacity:1"
       d="m 148.92262,205.99703 c 7.75415,-18.57286 16.65686,-20.9931 32.12797,-28.34822 -4.45415,7.38794 -17.82389,7.86656 -18.52083,20.41071 11.19271,-11.94544 20.26196,-15.78201 28.34821,-24.94643 -4.77537,16.13527 -10.67467,25.86156 -23.29343,30.12781 -8.39381,2.83784 -18.10019,11.91101 -29.24526,20.89897 0.37798,-4.28373 10.20536,-13.85911 10.58334,-18.14284 z"
       id="path2901"
       sodipodi:nodetypes="ccccscc" />
    <path
       style="fill:none;stroke:#000000;stroke-width:0.264583px;stroke-linecap:butt;stroke-linejoin:miter;stroke-opacity:1"
       d="M 106.21131,249.84226 C 104.17317,233.21581 97.346948,224.86817 86.556547,213.17857 L 62.366071,187.09821 C 24.996208,146.80882 27.767184,113.01284 38.931548,64.633927 L 26.080357,82.776784 C 21.06511,97.42849 20.080901,111.4506 20.410714,126.62202 15.287435,115.6322 14.28294,111.97728 11.717262,92.982141 5.4042341,107.06386 7.3138727,118.04559 9.8273812,132.66964 27.647203,178.48438 56.918923,198.39404 90.336308,230.94345 Z"
       id="path2903"
       sodipodi:nodetypes="ccsccccccc" />
    <path
       style="fill:none;stroke:#000000;stroke-width:0.264583px;stroke-linecap:butt;stroke-linejoin:miter;stroke-opacity:1"
       d="M 93.738093,244.92857 70.303572,224.13988 C 64.431165,215.72596 58.836016,206.75753 51.026785,202.21726 39.956751,193.84963 27.674366,185.21258 25.324405,178.78274 18.10174,168.85766 14.583275,160.16731 10.205357,151.19047 l -0.7559523,12.47322 c 2.7131643,19.90494 16.0302703,26.72213 29.1041653,40.82142 15.880894,8.53523 23.720514,18.07562 31.75,27.59227 l 21.92262,13.60714 z"
       id="path2905"
       sodipodi:nodetypes="cccccccccc" />
    <path
       style="fill:none;stroke:#000000;stroke-width:0.264583px;stroke-linecap:butt;stroke-linejoin:miter;stroke-opacity:1"
       d="m 74.839284,244.17262 c 0,0 -13.270137,-7.99158 -27.214285,-18.52084 L 35.907737,214.31249 c -4.051895,-6.82012 -10.201426,-9.34706 -16.298832,-13.29794 -2.691534,-1.78299 1.865457,2.63401 5.360512,8.69616 3.239412,5.61875 9.416678,10.82379 9.758534,11.33658 L 35.52976,222.25 v 0 c -3.747522,-2.47686 -4.820659,-0.38147 -11.312423,-6.51731 -2.393849,-3.22354 -4.409722,-6.57706 -6.047618,-10.09377 -1.637897,-3.51671 -2.897817,-7.19661 -3.779762,-11.0729 -6.1587438,12.28682 -1.004889,15.97991 5.776416,26.69875 12.533171,8.53636 14.351211,6.07157 27.862789,11.71332 z"
       id="path2909"
       sodipodi:nodetypes="csccsscccsccsc" />
    <path
       style="fill:none;stroke:#000000;stroke-width:0.264583px;stroke-linecap:butt;stroke-linejoin:miter;stroke-opacity:1"
       d="m 128.5119,118.53773 v 0 z"
       id="path2920"
       sodipodi:nodetypes="cc" />
    <path
       style="fill:none;stroke:#000000;stroke-width:0.264583px;stroke-linecap:butt;stroke-linejoin:miter;stroke-opacity:1"
       d="m 123.9762,129.26785 c 3.21929,-0.59244 9.93566,6.43073 3.77975,10.84885"
       id="path2924"
       sodipodi:nodetypes="cc" />
    <path
       style="fill:none;stroke:#000000;stroke-width:0.264583px;stroke-linecap:butt;stroke-linejoin:miter;stroke-opacity:1"
       d="m 123.9762,129.26785 c 3.20705,-1.66966 5.33986,-4.54784 4.5357,-10.73012"
       id="path2938"
       sodipodi:nodetypes="cc" />
    <path
       style="fill:none;stroke:#000000;stroke-width:0.264583px;stroke-linecap:butt;stroke-linejoin:miter;stroke-opacity:1"
       d="m 164.98661,118.87351 9.4494,-7.74851 -0.75595,5.48065 -2.26786,4.91369 11.52827,-7.18154 2.26786,-5.29167 1.13393,-3.59077 1.32292,9.82738 -0.75596,8.12648 -7.9375,11.71727"
       id="path3501" />
    <path
       style="fill:#ff9955;stroke:#000000;stroke-width:0.264583px;stroke-linecap:butt;stroke-linejoin:miter;stroke-opacity:1"
       d="m 171.03422,160.2619 6.23661,-0.94494 6.04762,-3.77976 -1.32292,4.91369 -4.15773,5.29167 -2.26786,3.96875"
       id="path3503" />
    <path
       style="fill:#ff9955;fill-opacity:0.289157;stroke:#000000;stroke-width:0.71811;stroke-opacity:0.457831"
       d="m 489.10265,629.83921 c -0.79812,-2.46551 -4.05849,-12.83989 -7.24527,-23.05418 -3.18678,-10.21428 -5.93233,-18.98538 -6.10121,-19.49132 -0.16889,-0.50594 0.25001,-1.11328 0.93089,-1.34965 7.69691,-2.67192 23.4959,-9.3174 32.66653,-13.7404 25.25867,-12.18229 46.00332,-26.57371 64.89844,-45.02273 21.66892,-21.15733 36.53436,-42.73735 47.58666,-69.0811 l 3.94347,-9.39949 16.07143,-13.18941 c 8.83928,-7.25417 16.10978,-13.1494 16.15666,-13.10051 0.0469,0.0489 -0.48322,4.10676 -1.17799,9.01747 -1.12985,7.98577 -1.69432,9.87137 -5.34581,17.85714 -2.24542,4.91072 -4.37841,9.49107 -4.73999,10.17857 -0.36883,0.70129 -0.38084,1.25 -0.0274,1.25 0.34654,0 10.7007,-6.27279 23.00925,-13.93955 l 22.37918,-13.93955 4.52741,-10.51895 c 2.49007,-5.78542 5.06409,-12.43167 5.72003,-14.76943 1.54695,-5.51328 1.7204,-4.9334 4.15207,13.88177 l 1.89244,14.64286 -1.3873,14.87835 -1.38729,14.87836 -15.51865,22.97879 c -15.04203,22.27308 -15.71965,23.14577 -22.06421,28.41603 -28.55969,23.72378 -88.07634,63.0327 -175.23121,115.73486 l -2.25704,1.36483 z"
       id="path3505"
       transform="scale(0.26458333)" />
    <path
       style="fill:#ffff30;fill-opacity:0.28915703;stroke:#000000;stroke-width:0.71811;stroke-opacity:0.457831"
       d="m 483.8146,610.5414 c -3.83216,-12.28029 -6.96609,-22.70465 -6.96429,-23.16526 0.002,-0.4606 1.20863,-1.22666 2.68185,-1.70236 5.99189,-1.93473 28.31791,-11.8226 37.77628,-16.73055 24.35203,-12.63628 42.4081,-26.06824 62.09132,-46.18988 19.40583,-19.8381 32.9044,-40.1116 43.57624,-65.44718 l 3.39094,-8.05029 15.02666,-12.46399 c 8.26467,-6.85519 15.1599,-12.33076 15.32273,-12.16792 0.55282,0.55282 -1.48215,12.84928 -2.72118,16.4429 -0.678,1.96642 -2.72292,6.82351 -4.54429,10.79354 -3.2239,7.02716 -3.94275,9.56748 -2.70737,9.56748 0.55222,0 22.99401,-13.68356 39.32797,-23.97967 l 6.71788,-4.23462 3.07858,-7.14285 c 1.69322,-3.92857 4.10061,-9.96242 5.34977,-13.40855 1.24915,-3.44613 2.35445,-6.17827 2.4562,-6.07143 0.10176,0.10685 1.05167,6.79037 2.11092,14.85227 l 1.9259,14.65802 -1.39464,14.71873 -1.39464,14.71873 -12.00887,17.76611 c -15.47287,22.8908 -18.51438,26.97179 -23.47763,31.50142 -16.69466,15.23613 -69.337,51.0967 -131.86706,89.82938 -25.73289,15.9396 -44.49653,27.36052 -45.71428,27.82506 -0.85762,0.32715 -2.46188,-4.04701 -8.03899,-21.91909 z"
       id="path3507"
       transform="scale(0.26458333)" />
    <path
       style="fill:#ffff12;fill-opacity:0.28915703;stroke:#000000;stroke-width:0.71811;stroke-opacity:0.457831"
       d="m 491.56201,630.81968 c -1.2557,-2.03175 -14.26434,-42.93112 -13.80194,-43.39351 0.10405,-0.10405 5.32658,-2.32232 11.60563,-4.92948 30.79985,-12.78859 52.43096,-25.45306 72.84503,-42.64892 7.77693,-6.55093 25.57321,-24.61059 31.52474,-31.99131 12.29988,-15.25353 21.98829,-31.60102 30.2575,-51.05425 1.66595,-3.91912 3.44598,-7.45483 3.95563,-7.85714 0.50964,-0.40231 6.91559,-5.67157 14.23542,-11.70947 7.31984,-6.03791 13.4539,-10.8329 13.63126,-10.65554 1.05993,1.05993 -2.46089,14.09719 -6.20743,22.98548 -4.35746,10.33763 -4.67561,11.47349 -3.42943,12.24367 0.83816,0.51801 5.38708,-2.10822 30.13964,-17.40054 l 16.96446,-10.48078 3.22617,-7.62372 c 1.7744,-4.19305 3.99711,-9.65734 4.93935,-12.14286 0.98648,-2.60221 1.86677,-4.06466 2.07526,-3.44771 0.19915,0.58929 1.0665,6.69643 1.92744,13.57143 l 1.56535,12.5 -1.41249,14.28572 -1.4125,14.28571 -10.91135,16.07143 c -15.99649,23.56139 -18.61038,27.03631 -24.65916,32.78206 -17.03568,16.18223 -80.62511,58.90793 -157.12415,105.57163 -19.15127,11.6821 -19.43823,11.84099 -19.93443,11.0381 z"
       id="path3509"
       transform="scale(0.26458333)" />
    <path
       style="fill:#ffcc00;fill-opacity:0.289157;stroke:#000000;stroke-width:0.71811;stroke-opacity:0.457831"
       d="m 490.56325,625.89218 c -1.58904,-4.40452 -7.43184,-22.51722 -10.35246,-32.09267 l -1.78209,-5.84266 11.17673,-4.76236 c 26.72418,-11.38706 45.25012,-21.61026 62.64159,-34.56759 12.06334,-8.98767 37.76012,-34.29524 45.90454,-45.20927 10.11848,-13.55938 18.79983,-28.75886 26.97138,-47.22208 l 2.78996,-6.30376 12.36339,-10.0827 c 16.22827,-13.23463 15.2295,-12.57764 14.69105,-9.66376 -0.6125,3.31466 -4.59435,15.3614 -7.80818,23.62299 -2.4139,6.20525 -2.59727,7.10257 -1.64585,8.05398 0.9514,0.95141 1.53035,0.82542 5.19637,-1.13088 6.28681,-3.35483 41.34108,-24.96038 42.67035,-26.29968 0.64311,-0.64798 3.01896,-5.76657 5.27966,-11.37466 2.2607,-5.60809 4.23097,-10.07593 4.37836,-9.92853 0.1474,0.1474 0.9375,5.37869 1.75578,11.6251 1.45358,11.096 1.46031,11.6609 0.29304,24.57138 -0.65711,7.26786 -1.48058,14.11142 -1.82995,15.20792 -1.14644,3.59822 -26.57316,39.83991 -32.01387,45.63063 -9.55878,10.17369 -28.35877,24.14272 -67.60375,50.23187 -37.93425,25.21782 -108.93123,69.64387 -111.29739,69.64387 -0.1633,0 -0.9637,-1.84822 -1.77866,-4.10714 z"
       id="path3511"
       transform="scale(0.26458333)" />
    <path
       style="fill:#ffcc00;fill-opacity:0.289157;stroke:#000000;stroke-width:0.71811;stroke-opacity:0.457831"
       d="m 491.6028,626.48542 c -1.55391,-3.8836 -11.89207,-36.46662 -11.89207,-37.48051 0,-0.45756 4.09821,-2.55695 9.10714,-4.66532 23.27565,-9.79724 47.07353,-22.71085 61.02147,-33.1125 14.74264,-10.9943 40.32671,-35.90337 49.23501,-47.93601 9.25392,-12.49949 20.86729,-32.96583 27.40254,-48.29176 1.91502,-4.49098 2.39152,-4.97636 14.56569,-14.83767 6.92224,-5.60714 12.68471,-9.89835 12.80549,-9.53602 0.22067,0.66199 -3.4758,12.15583 -7.68276,23.88891 -2.41975,6.74863 -2.23367,8.34192 0.9743,8.34192 0.84683,0 7.47712,-3.563 14.73398,-7.91777 23.26408,-13.96058 31.54687,-19.41807 32.93675,-21.70188 0.72502,-1.19134 2.67163,-5.46071 4.3258,-9.48749 1.65417,-4.02679 3.21738,-7.32143 3.4738,-7.32143 0.25642,0 1.00845,4.61467 1.67115,10.25483 1.1102,9.44858 1.11761,11.17544 0.0943,21.96428 -0.61084,6.4402 -1.30309,12.75355 -1.53834,14.02966 -0.8013,4.34677 -24.36413,38.19857 -33.00177,47.41239 -9.36832,9.99323 -29.09661,24.70425 -65.4817,48.82848 -34.40893,22.81398 -89.05066,57.3335 -108.32028,68.43056 l -3.32027,1.91209 z"
       id="path3513"
       transform="scale(0.26458333)" />
    <path
       style="fill:#784421;fill-opacity:0.289157;stroke:#000000;stroke-width:0.71811;stroke-opacity:0.457831"
       d="m 681.88466,504.83567 c -0.0171,-0.28644 5.70397,-8.96502 12.71346,-19.28572 l 12.74454,-18.76492 1.38633,-15.56408 1.38632,-15.56409 -2.49225,-18.9002 c -1.59088,-12.06463 -2.78327,-18.9002 -3.29692,-18.9002 -0.44258,0 -1.84177,3.29464 -3.10931,7.32143 -1.26754,4.02679 -4.13659,11.59199 -6.37569,16.81155 l -4.07107,9.49012 -19.98264,12.42596 c -10.99045,6.83427 -20.07234,12.33626 -20.18197,12.22662 -0.10964,-0.10963 1.30311,-3.38258 3.13942,-7.27322 3.05287,-6.46818 3.47756,-8.05161 4.9599,-18.49248 0.89163,-6.28023 1.48469,-11.55504 1.31792,-11.72181 -0.16677,-0.16678 -0.86768,0.189 -1.55759,0.7906 -6.06273,5.28669 -30.41618,24.85467 -30.64644,24.6244 -0.16256,-0.16255 0.9581,-4.59798 2.49036,-9.8565 3.4575,-11.86571 6.09398,-24.9902 7.73189,-38.48953 1.73209,-14.27553 1.71757,-45.38517 -0.0282,-60.35402 -2.38349,-20.43732 -3.90317,-27.03558 -15.92936,-69.16312 -6.48492,-22.71657 -11.65182,-41.4418 -11.482,-41.61162 0.16982,-0.16982 2.52689,2.82718 5.23793,6.66 2.71105,3.83282 12.66417,17.27042 22.11806,29.86133 9.45388,12.59091 19.08694,25.76948 21.4068,29.28571 17.60816,26.68888 23.1391,52.16456 21.08266,97.10744 -0.43142,9.42857 -0.94877,18.91071 -1.14967,21.07143 l -0.36527,3.92857 1.43103,-1.78572 c 4.91772,-6.13662 26.13148,-35.1776 30.2626,-41.42857 11.10547,-16.80415 18.19129,-35.02428 18.42779,-47.38426 l 0.0569,-2.97288 2.40895,5 c 5.41695,11.2434 7.50686,26.47209 6.11825,44.58236 -0.91612,11.948 -4.33656,38.8959 -6.15115,48.4616 -4.72418,24.90384 -16.29715,49.44545 -32.92149,69.81318 -5.91026,7.2411 -16.63274,18.8446 -16.68011,18.05064 z"
       id="path3515"
       transform="scale(0.26458333)" />
    <path
       style="fill:#d38d5f;fill-opacity:0.289157;stroke:#000000;stroke-width:0.71811;stroke-opacity:0.457831"
       d="m 688.30784,496.90142 c -0.0141,-0.32885 4.38368,-7.07885 9.77291,-15 l 9.79859,-14.4021 1.47058,-16.07143 1.47058,-16.07143 -1.95881,-14.52678 c -1.07734,-7.98972 -2.29252,-16.33198 -2.70039,-18.53835 -0.72046,-3.89735 -1.7124,-5.8397 -2.55299,-4.99912 -0.22657,0.22657 -2.10545,5.02657 -4.17528,10.66667 -2.06984,5.6401 -5.03188,13.14758 -6.58232,16.6833 l -2.81899,6.42857 -18.55335,11.50737 c -10.20435,6.32906 -18.65202,11.25628 -18.77261,10.94938 -0.12058,-0.30688 0.62366,-2.22137 1.65389,-4.25442 1.03022,-2.03305 2.46729,-6.01959 3.19348,-8.85898 1.50626,-5.88942 3.38566,-21.56767 2.67105,-22.28228 -0.61762,-0.61762 -0.85207,-0.44179 -17.00402,12.75297 -7.56927,6.18344 -13.84032,11.16459 -13.93567,11.06924 -0.0954,-0.0953 1.22104,-5.63668 2.92532,-12.31404 5.99736,-23.49758 7.47156,-36.05101 7.48854,-63.76813 0.0228,-37.19197 -1.10275,-43.5891 -18.66838,-106.10379 -4.72717,-16.82361 -8.46269,-30.72054 -8.30117,-30.88206 0.16152,-0.16152 1.87309,1.87111 3.80347,4.51696 1.93039,2.64585 11.36001,15.39121 20.95473,28.32303 20.75246,27.97027 23.83145,32.49139 28.91428,42.45699 6.55662,12.85519 10.66124,26.8973 12.66171,43.31633 1.07122,8.79207 1.06851,37.25249 -0.005,53.50095 -0.43871,6.63981 -0.65525,12.2148 -0.48118,12.38886 0.56614,0.56615 22.79756,-29.1876 31.94789,-42.75794 9.10446,-13.50231 15.80763,-28.75974 18.38236,-41.84102 l 1.22258,-6.21156 1.61925,3.76405 c 3.95671,9.19761 6.34027,25.56154 5.47465,37.58523 -1.45481,20.20759 -5.69226,50.97386 -8.50976,61.78571 -5.7684,22.13563 -17.60614,45.02685 -32.07362,62.02235 -2.829,3.32334 -5.8553,6.87965 -6.7251,7.9029 -0.8698,1.02326 -1.59301,1.59141 -1.60714,1.26257 z"
       id="path3517"
       transform="scale(0.26458333)" />
    <path
       style="fill:#c83737;fill-opacity:0.289157;stroke:#000000;stroke-width:0.71811;stroke-opacity:0.457831"
       d="m 696.88261,485.52955 c -0.016,-0.29767 2.61545,-4.40365 5.84758,-9.1244 l 5.8766,-8.5832 1.45744,-16.23274 1.45744,-16.23275 -1.59081,-11.78571 c -0.87495,-6.48215 -2.09572,-14.83755 -2.71283,-18.56757 -1.09909,-6.64327 -2.49899,-9.59184 -3.88723,-8.18753 -0.37172,0.37602 -2.58559,5.66581 -4.91971,11.7551 -8.31834,21.70099 -8.19542,21.47169 -13.19844,24.62037 -13.86371,8.72519 -29.99198,18.27052 -30.31872,17.94378 -0.2078,-0.2078 0.27344,-1.91439 1.06942,-3.79242 2.96038,-6.98461 6.22463,-28.00877 4.60082,-29.63258 -1.03324,-1.03324 -1.50862,-0.7013 -16.89896,11.79978 -7.05718,5.73232 -12.8948,10.35717 -12.9725,10.27745 -0.0777,-0.0797 1.13495,-5.44705 2.69477,-11.9274 5.98882,-24.88091 7.45923,-40.19952 6.81823,-71.03197 -0.65445,-31.47941 -1.46373,-35.74713 -18.42306,-97.15392 -3.90117,-14.12544 -6.99201,-25.98568 -6.86854,-26.35608 0.12346,-0.3704 1.36451,0.90107 2.75787,2.82548 1.39337,1.92441 10.0089,13.62394 19.14563,25.99894 9.13673,12.375 18.64164,25.55357 21.12201,29.28571 11.33494,17.05535 17.87807,35.25296 20.41788,56.78571 0.71163,6.03322 0.52857,43.0173 -0.30757,62.14286 -0.0687,1.57143 0.19651,3.00553 0.58937,3.18688 0.86347,0.39861 6.87958,-7.03959 18.46497,-22.82974 19.97787,-27.22855 26.87135,-39.79797 31.14309,-56.78571 0.8891,-3.53571 1.77821,-6.91071 1.9758,-7.5 1.04584,-3.11896 5.46382,15.70867 6.28538,26.78571 0.70324,9.48165 -2.6011,41.15205 -6.52095,62.5 -3.49642,19.04192 -12.66673,41.28793 -23.99728,58.21429 -4.83035,7.21592 -9.05433,12.59656 -9.1077,11.60166 z"
       id="path3519"
       transform="scale(0.26458333)" />
    <path
       style="fill:#a02c2c;fill-opacity:0.289157;stroke:#000000;stroke-width:0.71811;stroke-opacity:0.457831"
       d="m 667.56787,636.70307 c 0,-1.54665 6.5092,-11.29704 13.31606,-19.94665 l 7.84704,-9.97139 2.67638,-9.89683 c 1.472,-5.44326 2.53602,-10.0372 2.36447,-10.20875 -0.17155,-0.17154 -5.17605,2.7454 -11.12111,6.48208 -5.94506,3.7367 -11.40994,7.1155 -12.14417,7.50845 -1.44222,0.77185 -20.47273,3.84226 -21.56026,3.47856 -0.36289,-0.12136 9.94637,-9.05607 22.90947,-19.85492 12.96309,-10.79886 23.56926,-20.06551 23.56926,-20.59257 0,-1.97592 7.94102,-24.58365 13.59407,-38.70173 12.52388,-31.27747 27.65123,-61.67118 37.16281,-74.66715 2.79647,-3.82089 7.38102,-8.18999 8.59386,-8.18999 1.19962,0 3.5187,6.07996 4.70857,12.34451 1.6341,8.60339 0.94621,25.55836 -1.58572,39.08406 -3.19995,17.09431 -10.70082,47.73097 -13.55327,55.35714 -11.00468,29.42158 -32.51548,55.83956 -65.49705,80.43864 -8.78309,6.55082 -11.28041,8.17502 -11.28041,7.33654 z"
       id="path3521"
       transform="scale(0.26458333)" />
    <path
       style="fill:#aa4400;fill-opacity:0.289157;stroke:#000000;stroke-width:0.71811;stroke-opacity:0.457831"
       d="m 670.9294,631.9636 c 2.15602,-3.35089 9.46124,-13.33446 15.02648,-20.53571 3.2404,-4.19299 3.80789,-5.50799 5.85666,-13.57143 1.24772,-4.91071 2.43191,-9.49107 2.63152,-10.17857 0.70594,-2.43134 -2.23516,-1.26178 -12.02133,4.78039 -5.3719,3.31672 -10.67077,6.49274 -11.77526,7.05782 -2.22205,1.13685 -15.86286,3.5969 -17.83676,3.21676 -0.84427,-0.16259 5.34981,-5.84171 19.07488,-17.48902 11.17883,-9.48653 21.16915,-18.16347 22.20072,-19.28209 1.12338,-1.21818 2.80715,-4.8985 4.19841,-9.17672 7.64908,-23.52149 18.17565,-48.9872 30.70694,-74.28571 9.73491,-19.65311 16.97092,-31.52593 22.39054,-36.73833 l 3.2928,-3.1669 1.52029,3.43687 c 3.6937,8.35021 4.4038,25.48327 1.76845,42.6688 -2.20377,14.3712 -11.26876,51.71377 -14.88187,61.3048 -4.2817,11.36577 -12.38547,25.50815 -21.4669,37.46316 -5.48836,7.225 -20.97801,23.16531 -29.33099,30.18435 -7.08956,5.95738 -22.07549,17.34725 -22.8242,17.34725 -0.26598,0 0.39535,-1.36607 1.46962,-3.03572 z"
       id="path3523"
       transform="scale(0.26458333)" />
    <path
       style="fill:#ff2a2a;fill-opacity:0.289157;stroke:#000000;stroke-width:0.71811;stroke-opacity:0.457831"
       d="m 673.66816,629.4636 c 0.69553,-1.08035 4.39506,-6.18107 8.22119,-11.33491 3.82612,-5.15385 7.33055,-10.0694 7.78763,-10.92345 1.60997,-3.00826 5.73817,-20.35864 5.01583,-21.08099 -0.89889,-0.89888 -5.04284,1.10817 -16.08713,7.79155 -8.55725,5.17837 -10.84396,6.00316 -21.71767,7.83333 l -2.46558,0.41499 2.10844,-2.23441 c 1.15963,-1.22893 9.82272,-8.90601 19.25129,-17.06019 9.42857,-8.15418 17.88417,-15.63112 18.79022,-16.61542 0.94496,-1.02656 3.58027,-7.26628 6.18061,-14.63405 9.37064,-26.55061 18.7214,-48.49055 30.90028,-72.50216 10.17972,-20.0701 21.1278,-36.4602 22.9879,-34.41463 1.3431,1.47703 2.9546,8.09158 3.74356,15.3658 1.5468,14.2615 -1.09684,33.1203 -9.14864,65.26319 -3.9126,15.61918 -6.7323,24.58971 -9.94562,31.64089 -3.34168,7.33284 -11.39411,20.74359 -16.82821,28.02618 -5.38986,7.22331 -23.63675,26.11906 -31.6801,32.80663 -7.72912,6.42631 -17.14439,13.62194 -17.82393,13.62194 -0.30506,0 0.0144,-0.88393 0.70993,-1.96429 z"
       id="path3525"
       transform="scale(0.26458333)" />
    <path
       style="fill:#ff2a2a;fill-opacity:0.289157;stroke:#000000;stroke-width:0.71811;stroke-opacity:0.457831"
       d=""
       id="path3527"
       transform="scale(0.26458333)" />
    <path
       style="fill:#ff592a;fill-opacity:0.28915703;stroke:#000000;stroke-width:0.71811;stroke-opacity:0.457831"
       d="m 677.1567,626.05296 c 0.64993,-0.99192 3.89871,-5.52574 7.21952,-10.07515 6.43121,-8.81058 7.59731,-11.51544 10.04359,-23.29683 1.58689,-7.64254 1.16152,-8.45159 -3.38321,-6.43488 -1.71137,0.75943 -7.12944,3.69345 -12.04016,6.52005 -8.96225,5.15866 -12.81674,6.71113 -18.94384,7.62994 l -3.30121,0.49504 3.8011,-3.53257 c 2.0906,-1.94292 9.26538,-8.29656 15.94395,-14.11922 21.28733,-18.55916 19.31625,-15.9796 25.72184,-33.66233 14.33877,-39.58242 34.23446,-81.47275 46.78567,-98.50711 3.60864,-4.8976 4.90579,-5.93658 5.7381,-4.59608 1.98578,3.19823 3.78118,17.9421 3.21269,26.38264 -1.67814,24.91573 -12.56455,70.10029 -20.89128,86.71017 -3.90312,7.78582 -11.41746,20.02873 -15.82904,25.78983 -5.44186,7.10653 -27.77385,29.36636 -36.26422,36.14704 -4.37515,3.49413 -8.1889,6.35296 -8.47501,6.35296 -0.2861,0 0.0116,-0.81157 0.66151,-1.8035 z"
       id="path3529"
       transform="scale(0.26458333)" />
    <path
       style="fill:#ffcc00;fill-opacity:0.289157;stroke:#000000;stroke-width:0.71811;stroke-opacity:0.457831"
       d="m 680.42501,623.20573 c 0,-0.26624 1.93624,-3.16616 4.30274,-6.44428 2.3665,-3.27811 5.23873,-7.98885 6.38272,-10.46831 2.2214,-4.81463 5.43907,-18.4802 4.76494,-20.23695 -0.82184,-2.14167 -4.51433,-0.97266 -14.73611,4.66531 -10.45033,5.76405 -15.42927,7.96445 -19.99043,8.8346 -2.1425,0.40873 -2.34208,0.33723 -1.42857,-0.51177 0.58402,-0.54278 6.84757,-6.05556 13.919,-12.25063 15.23097,-13.3434 21.36564,-19.20891 23.25006,-22.22999 0.76207,-1.22173 3.77227,-8.61458 6.68935,-16.42857 15.71232,-42.0887 33.35853,-79.1015 46.02098,-96.52868 1.78404,-2.45536 3.63723,-4.46428 4.11818,-4.46428 1.85765,0 4.25882,18.46034 3.48407,26.78571 -2.25155,24.19495 -10.85332,61.24738 -18.5879,80.06806 -2.7181,6.61398 -8.58372,17.02014 -14.84943,26.34425 -7.06285,10.51035 -43.3396,46.39029 -43.3396,42.86553 z"
       id="path3531"
       transform="scale(0.26458333)" />
    <path
       style="fill:#ffcc00;fill-opacity:0.289157;stroke:#000000;stroke-width:0.71811;stroke-opacity:0.457831"
       d="m 514.99071,736.84153 c -0.69355,-1.80736 1.07589,-19.66913 2.48217,-25.0565 3.72677,-14.27703 10.68002,-25.43947 26.51215,-42.56144 l 6.33134,-6.84715 8.80432,-3.48962 c 24.62913,-9.76182 51.20808,-25.49041 77.66575,-45.96017 4.87379,-3.77075 9.0114,-6.79448 9.19472,-6.71941 0.1833,0.0751 4.00027,7.76791 8.48214,17.0952 6.58859,13.71162 7.97366,17.12884 7.23386,17.84725 -3.5906,3.48676 -34.81723,20.55288 -52.72121,28.81343 -11.04845,5.09754 -11.1968,5.19761 -37.85714,25.53639 -56.80869,43.33851 -55.68077,42.50772 -56.1281,41.34202 z"
       id="path3533"
       transform="scale(0.26458333)" />
    <path
       style="fill:#ffcc00;fill-opacity:0.289157;stroke:#000000;stroke-width:0.71811;stroke-opacity:0.457831"
       d="m 655.20647,623.12458 c -4.23426,-8.88825 -7.55683,-16.30227 -7.3835,-16.4756 0.17334,-0.17334 5.33702,-1.07759 11.47485,-2.00946 l 11.15969,-1.6943 10.16232,-6.38037 c 5.58928,-3.50921 10.2341,-6.18096 10.32183,-5.93724 0.0877,0.24373 -0.73393,3.76096 -1.82591,7.81607 -1.97231,7.32431 -2.03818,7.4405 -9.98909,17.61699 -4.40203,5.63423 -9.67476,13.16462 -11.71717,16.73421 -2.04241,3.56958 -3.89143,6.49015 -4.10892,6.49015 -0.2175,0 -3.85984,-7.2722 -8.0941,-16.16045 z"
       id="path3535"
       transform="scale(0.26458333)" />
    <path
       style="fill:#ffcc00;fill-opacity:0.289157;stroke:#000000;stroke-width:0.71811;stroke-opacity:0.457831"
       d="m 515.72535,731.00401 c 0.97411,-11.24698 2.05467,-17.89203 3.7593,-23.11837 3.7695,-11.55717 10.54869,-21.97386 24.08981,-37.01566 7.07708,-7.86139 7.07892,-7.86278 13.92857,-10.53633 23.86763,-9.31601 49.27134,-24.05892 76.13627,-44.1853 l 12.14286,-9.09705 4.77653,9.86686 c 2.6271,5.42678 6.12687,12.89922 7.77727,16.60541 l 3.00073,6.73854 -2.06298,1.64853 c -3.87067,3.09305 -23.46117,13.83869 -43.00419,23.58836 l -19.51263,9.73451 -20.48737,15.48022 c -11.26805,8.51412 -27.71951,21.00128 -36.55879,27.74925 -8.83929,6.74797 -17.96212,13.60094 -20.27297,15.22882 l -4.20155,2.95977 z"
       id="path3537"
       transform="scale(0.26458333)" />
    <path
       style="fill:#ffcc00;fill-opacity:0.289157;stroke:#000000;stroke-width:0.71811;stroke-opacity:0.457831"
       d="m 660.19451,631.66067 c -7.35178,-14.68342 -11.33105,-23.99485 -10.47923,-24.5213 0.46564,-0.28779 4.91404,-1.09602 9.88532,-1.79607 4.97129,-0.70005 10.00299,-1.66612 11.18156,-2.14682 1.17857,-0.4807 5.81326,-3.16381 10.29932,-5.96245 4.48605,-2.79865 8.28085,-4.96406 8.43289,-4.81203 0.36117,0.36118 -1.81024,8.72336 -3.01307,11.60344 -0.51463,1.23223 -4.1566,6.5358 -8.09326,11.78572 -3.93667,5.24991 -8.93497,12.3822 -11.10734,15.84951 l -3.94975,6.30421 z"
       id="path3539"
       transform="scale(0.26458333)" />
    <path
       style="fill:#ffcc00;fill-opacity:0.289157;stroke:#000000;stroke-width:0.71811;stroke-opacity:0.457831"
       d="m 516.1393,733.77238 c 0,-3.15297 2.21709,-18.77857 3.19671,-22.52973 2.1522,-8.24125 6.80275,-17.31704 13.24364,-25.84568 5.56948,-7.37476 16.10347,-19.36733 18.48156,-21.04058 1.02509,-0.72127 5.8482,-2.98179 10.71801,-5.02338 23.30851,-9.77174 46.45329,-23.41415 72.14289,-42.52378 5.65555,-4.20697 10.64863,-7.78941 11.09573,-7.96098 0.69622,-0.26716 7.37554,13.06375 13.71797,27.37902 l 1.65169,3.72796 -2.36781,1.80602 c -4.10393,3.13021 -19.36168,11.47275 -41.1661,22.50854 l -21.07143,10.66481 -36.51645,27.71093 c -45.20501,34.30435 -43.12641,32.8041 -43.12641,31.12685 z"
       id="path3541"
       transform="scale(0.26458333)" />
    <path
       style="fill:#ffcc00;fill-opacity:0.289157;stroke:#000000;stroke-width:0.71811;stroke-opacity:0.457831"
       d=""
       id="path3543"
       transform="scale(0.26458333)" />
    <path
       style="fill:#ffcc00;fill-opacity:0.289157;stroke:#000000;stroke-width:0.71811;stroke-opacity:0.457831"
       d="m 517.18775,729.10646 c 2.91135,-23.31743 6.98823,-32.62019 22.30592,-50.89844 10.65212,-12.71093 11.33658,-13.25763 23.07595,-18.43152 25.58872,-11.27772 43.27774,-21.69468 70.95819,-41.7869 8.97925,-6.5177 11.45699,-8.00703 11.99434,-7.20961 1.34999,2.00337 5.90481,11.20026 9.91431,20.01855 l 4.09828,9.0135 -4.3763,2.85611 c -5.7536,3.755 -17.24626,9.95674 -40.80485,22.01938 l -19.28572,9.87481 -36.42857,27.58247 c -37.95117,28.73534 -40.61704,30.71165 -41.42729,30.71165 -0.27086,0 -0.28178,-1.6875 -0.0243,-3.75 z"
       id="path3545"
       transform="scale(0.26458333)" />
    <path
       style="fill:#d40000;fill-opacity:0.289157;stroke:#000000;stroke-width:0.71811;stroke-opacity:0.457831"
       d=""
       id="path3547"
       transform="scale(0.26458333)" />
    <path
       style="fill:#ff3300;fill-opacity:0.28915703;stroke:#000000;stroke-width:0.71811;stroke-opacity:0.457831"
       d="m 524.71073,843.59783 c 0,-2.74713 6.93015,-13.77766 19.42709,-30.92158 12.77789,-17.52933 16.69903,-23.97877 18.83382,-30.97763 2.02809,-6.64907 12.03586,-27.19859 17.17711,-35.27073 14.87539,-23.35546 31.21304,-37.87321 59.05313,-52.475 8.67797,-4.5515 40.75265,-19.66786 41.73228,-19.66786 1.028,0 -7.4165,8.04145 -11.93772,11.36793 -2.55357,1.87879 -9.30357,6.24953 -15,9.71275 -23.52165,14.30029 -32.75125,23.52884 -37.50256,37.49829 -1.72037,5.05808 -3.64371,16.22714 -2.91913,16.95172 0.20964,0.20964 4.97064,-4.20585 10.58,-9.8122 13.09189,-13.08487 25.13609,-23.43877 47.34169,-40.69768 24.34715,-18.92338 28.63262,-22.50969 38.80105,-32.47071 9.94032,-9.73755 9.68945,-9.93372 4.95986,3.87847 -15.77112,46.05765 -35.07454,73.09944 -62.91111,88.13098 -6.27145,3.38654 -8.30958,4.27467 -21.56408,9.39677 -19.45205,7.5171 -38.44385,20.39907 -76.78572,52.08306 -25.51678,21.08592 -29.28571,24.0811 -29.28571,23.27342 z"
       id="path3549"
       transform="scale(0.26458333)" />
    <path
       style="fill:#ff1100;fill-opacity:0.28915703;stroke:#000000;stroke-width:0.71811;stroke-opacity:0.457831"
       d="m 527.25301,839.18577 c 1.71353,-3.33792 9.23964,-14.48755 19.4541,-28.82049 10.74298,-15.07454 14.4427,-21.2878 17.00922,-28.56508 2.43615,-6.90759 12.49145,-27.51871 16.75746,-34.34902 14.94556,-23.92937 32.39642,-39.11172 62.53975,-54.40992 12.65583,-6.42303 32.70788,-15.89908 33.64365,-15.89908 1.53247,0 -6.32388,6.60846 -13.37503,11.25056 -4.51786,2.97431 -12.72615,8.37614 -18.24064,12.00406 -20.54642,13.51725 -28.31128,23.77804 -31.40071,41.49408 -0.59012,3.38399 -1.07294,6.59275 -1.07294,7.13057 0,2.45267 3.06356,0.23648 13.11194,-9.48525 13.52992,-13.09009 22.51946,-20.84125 41.53092,-35.80974 25.38912,-19.98986 31.60646,-25.13512 40.91477,-33.8597 4.94133,-4.63145 9.09125,-8.3138 9.22205,-8.183 0.30869,0.30868 -5.21876,15.84526 -9.05143,25.4418 -4.07535,10.20418 -12.65563,26.97678 -17.5558,34.31777 -11.56061,17.3191 -25.54646,30.12487 -41.74388,38.22172 -2.94643,1.47287 -9.375,4.26933 -14.28571,6.21436 -25.00379,9.90346 -37.77233,18.46953 -84.85832,56.92916 -12.29707,10.0442 -22.68985,18.37822 -23.09507,18.52006 -0.40521,0.14183 -0.18216,-0.82245 0.49567,-2.14286 z"
       id="path3551"
       transform="scale(0.26458333)" />
    <path
       style="fill:#ff1100;fill-opacity:0.289157;stroke:#000000;stroke-width:0.71811;stroke-opacity:0.457831"
       d="m 528.99644,838.08437 c 0,-0.70745 7.69849,-12.14305 21.31125,-31.65648 7.77651,-11.14736 11.59245,-17.89129 15.03652,-26.57413 3.32736,-8.38861 14.10351,-29.55041 18.11252,-35.56873 8.82699,-13.25103 18.60502,-23.66139 30.89686,-32.89491 9.1706,-6.88888 17.76678,-11.93593 34.79056,-20.4265 30.52693,-15.22522 30.75367,-14.67015 1.88928,4.62491 -27.88029,18.63722 -34.55674,26.83173 -38.1153,46.7818 -1.51022,8.46662 -1.05064,9.4932 3.01375,6.73192 1.48908,-1.01165 6.89915,-5.80402 12.02236,-10.64972 13.53217,-12.79913 21.55784,-19.61651 47.11363,-40.0205 12.57143,-10.03716 26.84422,-21.88505 31.71732,-26.32865 10.15874,-9.26338 9.92258,-9.58226 4.26063,5.75308 -3.64352,9.86846 -13.67167,31.20111 -18.29101,38.91008 -8.29106,13.83647 -22.20653,28.5217 -34.78584,36.71008 -4.84533,3.15402 -11.47434,6.55726 -18.44649,9.47017 -23.79094,9.93966 -37.42148,17.80906 -57.19824,33.02259 -7.7727,5.97926 -48.42301,38.55674 -52.0778,41.73557 -0.6875,0.59796 -1.25,0.7687 -1.25,0.37942 z"
       id="path3553"
       transform="scale(0.26458333)" />
    <path
       style="fill:#ff1100;fill-opacity:0.289157;stroke:#000000;stroke-width:0.71811;stroke-opacity:0.457831"
       d="m 683.28216,620.42463 c 0,-0.2321 1.08644,-1.94953 2.41432,-3.81652 4.43601,-6.23697 6.79938,-11.20963 8.5759,-18.04411 2.61591,-10.0637 2.88247,-12.42545 1.52922,-13.54855 -1.66096,-1.37847 -5.02746,-0.17895 -17.0123,6.06168 -9.51724,4.95572 -16.12265,7.8305 -16.68957,7.26357 -0.13491,-0.13492 4.33487,-4.23023 9.93285,-9.10071 5.59798,-4.87047 13.6275,-12.20143 17.84338,-16.291 l 7.66523,-7.43559 4.75763,-12.22133 c 17.36513,-44.60729 29.55096,-71.49686 40.99955,-90.47066 4.64134,-7.6921 9.97697,-15.20986 10.45544,-14.7314 1.02024,1.02025 2.52097,13.00196 2.56524,20.48074 0.12364,20.88706 -10.95424,69.70135 -20.1814,88.92857 -3.44728,7.18332 -11.09367,19.92533 -15.13295,25.21769 -5.56866,7.29619 -37.72254,39.43735 -37.72254,37.70762 z"
       id="path3555"
       transform="scale(0.26458333)" />
    <path
       style="fill:#ffffff;stroke:#000000;stroke-width:0.264583px;stroke-linecap:butt;stroke-linejoin:miter;stroke-opacity:1;fill-opacity:1"
       d="m 108.29018,124.35417 3.21279,-2.45685 c 3.702,-0.10299 6.52266,-1.35885 6.23661,2.64584 -2.6791,2.09979 -4.96568,2.68563 -8.12649,3.77976 l -4.53571,0.37797 z"
       id="path3559"
       sodipodi:nodetypes="cccccc" />
    <path
       style="fill:#d45500;fill-opacity:1;stroke:#000000;stroke-width:0.71811;stroke-opacity:0.457831"
       d="m 429.40677,940.23981 c -7.81042,-57.18715 -26.87115,-102.66822 -59.33917,-141.59006 -3.73249,-4.47441 -12.21033,-13.95655 -18.83965,-21.07143 -6.62932,-7.11488 -19.86909,-21.61472 -29.4217,-32.22186 -30.95177,-34.36859 -39.28867,-43.34208 -53.13994,-57.19761 -16.06559,-16.07052 -24.93454,-23.5652 -36.08594,-30.49434 -9.38675,-5.83263 -9.44538,-5.67786 2.46395,-6.50483 20.35448,-1.41338 34.30828,-7.18428 43.73384,-18.08708 10.47415,-12.11575 13.05499,-20.86608 11.12407,-37.71614 -0.58524,-5.10714 -0.91597,-11.45536 -0.73494,-14.10714 0.22774,-3.33608 0.0772,-4.82143 -0.48849,-4.82143 -1.44828,0 -10.99478,-4.8519 -15.30312,-7.77764 -12.24613,-8.31619 -23.06059,-21.87007 -32.68179,-40.96046 -2.12512,-4.21667 -3.86386,-8.02846 -3.86386,-8.47064 0,-0.44217 1.24084,0.69764 2.75743,2.53291 5.50356,6.66008 12.6524,10.98427 20.81397,12.58995 5.46259,1.0747 23.85391,-0.43352 23.28743,-1.90973 -0.1833,-0.47768 -3.63754,-5.31873 -7.67607,-10.75788 -7.05973,-9.50814 -19.9951,-28.25763 -19.6882,-28.53756 0.0816,-0.0744 3.68401,1.58789 8.00544,3.69396 11.27701,5.49592 28.79423,12.36838 32.90698,12.91028 1.93688,0.2552 5.35899,1.38115 7.60471,2.50212 10.16037,5.07167 18.40583,4.28571 33.83731,-3.22537 5.10952,-2.487 10.9161,-5.06191 12.90348,-5.72201 l 3.61342,-1.20019 2.54977,-7.6553 c 1.40237,-4.21041 3.72037,-11.51244 5.1511,-16.22673 5.96747,-19.66288 13.0029,-29.23573 26.20733,-35.65931 12.64293,-6.15042 30.63462,-9.23167 54.15447,-9.27445 18.43826,-0.0335 22.43972,1.14465 34.2648,10.08895 3.35079,2.53448 6.49413,5.12462 6.9852,5.75586 1.09498,1.40751 1.19166,11.24697 0.16378,16.66694 -1.58143,8.33886 -7.38266,16.81187 -13.9217,20.33338 -2.99502,1.61292 -3.2524,3.15736 -0.52779,3.16704 3.33668,0.0118 9.39667,3.3678 13.26868,7.34802 4.51735,4.64361 7.07656,9.62259 7.48642,14.56495 0.52893,6.37813 -0.27363,8.59982 -4.83235,13.37735 -5.53126,5.79673 -11.97176,15.77732 -17.88145,27.71014 -11.61548,23.45396 -16.24026,44.30341 -14.40109,64.92308 2.34503,26.29095 11.13363,63.1068 27.94659,117.06948 2.9369,9.42624 4.48479,17.01002 10.41657,51.03554 l 6.96709,39.96411 -3.38446,13.60687 c -3.84587,15.46193 -8.22208,29.1795 -12.34479,38.69573 -4.91221,11.33859 -16.54214,27.67795 -39.76841,55.87227 -5.93683,7.2067 -11.29877,13.7435 -11.91544,14.52621 -1.04704,1.32897 -1.20404,0.81659 -2.37348,-7.74595 z M 407.73404,486.41177 c 11.06226,-1.04902 24.49926,-5.96871 34.57607,-12.65934 4.12292,-2.73746 4.48577,-3.77596 3.08336,-8.82461 -1.49519,-5.38262 -5.14277,-6.60138 -16.71722,-5.58568 l -7.85192,0.68904 -5.94198,4.44835 c -4.79901,3.5927 -7.1754,6.11918 -12.35429,13.13457 -3.52677,4.77741 -6.41231,8.87562 -6.41231,9.10714 0,0.59925 2.83068,0.52385 11.61829,-0.30947 z"
       id="path3561"
       transform="scale(0.26458333)" />
    <path
       style="fill:#ffffff;fill-opacity:1;stroke:#000000;stroke-width:0.71811;stroke-opacity:0.457831"
       d="m 430.84048,944.99932 c -0.22463,-1.375 -1.3883,-8.50557 -2.58593,-15.84569 -8.12218,-49.77971 -26.10397,-91.68711 -54.49857,-127.01145 -3.31578,-4.125 -11.29307,-13.27049 -17.72732,-20.3233 -6.43424,-7.05283 -21.47488,-23.6064 -33.42363,-36.78572 -53.81225,-59.35423 -70.40403,-75.65861 -89.32127,-87.77403 -3.98877,-2.55458 -6.3316,-4.45733 -5.71429,-4.64092 0.57545,-0.17114 4.91166,-0.66185 9.63603,-1.09047 22.85233,-2.07327 37.56533,-9.83865 47.35915,-24.99569 4.99684,-7.73317 6.04748,-11.36512 6.12566,-21.17559 0.092,-11.54308 -1.06509,-29.64286 -1.89497,-29.64286 -1.35879,0 -12.45513,-5.95565 -16.60816,-8.91396 -5.23819,-3.73131 -14.5942,-13.38556 -19.05019,-19.65746 -3.31564,-4.66685 -13.44849,-22.02833 -13.44935,-23.04394 -2.6e-4,-0.29916 1.84552,0.95964 4.10172,2.79735 8.42896,6.86548 16.2916,9.05035 29.1121,8.08967 8.51062,-0.63773 11.07143,-1.22991 11.07143,-2.56024 0,-0.54498 -3.3153,-5.57263 -7.36732,-11.17257 -9.14005,-12.63162 -18.55609,-26.25313 -18.1478,-26.25313 0.16854,0 3.47287,1.47968 7.34295,3.28817 10.15179,4.74396 23.566,10.00375 30.04852,11.78221 3.08605,0.84664 8.02456,2.51151 10.97446,3.69971 4.18485,1.68562 6.46223,2.16104 10.36348,2.16343 6.49143,0.004 11.22176,-1.43547 24.28349,-7.3896 5.89408,-2.68679 11.53028,-5.08269 12.52488,-5.32423 1.65926,-0.40294 2.24628,-1.80549 7.11848,-17.008 6.75514,-21.07773 9.98355,-27.73793 16.72662,-34.50697 8.11891,-8.15017 18.83397,-12.77001 36.51076,-15.74176 6.26885,-1.0539 11.69232,-1.3176 27.12148,-1.31871 17.9869,-0.001 19.53266,0.10009 22.9526,1.50554 4.22993,1.73833 12.98824,7.63024 17.40885,11.71132 l 3.03832,2.80497 -0.34891,7.70267 c -0.3914,8.64084 -1.7106,12.95082 -5.8912,19.24725 -1.3934,2.09862 -3.89578,4.79041 -5.56085,5.98176 -6.46481,4.62555 -6.91567,5.73715 -2.61078,6.43689 9.59747,1.56002 19.94054,13.57298 19.94054,23.15993 0,4.41654 -0.93611,6.42448 -5.47252,11.73853 -14.06716,16.47857 -26.64038,43.62629 -30.63136,66.13832 -4.46759,25.20047 2.57272,63.81974 25.13145,137.85714 4.34477,14.25949 7.07007,27.38126 14.24181,68.57143 l 4.85029,27.85714 -3.08477,12.14286 c -3.95482,15.56778 -10.62869,35.87801 -13.96887,42.51071 -6.39223,12.69328 -16.96534,26.9443 -48.67802,65.61091 l -1.54057,1.87838 z M 415.44389,485.72444 c 10.48941,-2.25891 24.45247,-8.50545 29.51215,-13.20261 1.87201,-1.73789 2.01446,-2.20445 1.60304,-5.25066 -0.24835,-1.8388 -1.04318,-4.14685 -1.7663,-5.12899 -2.43925,-3.31305 -3.99765,-3.6797 -14.22292,-3.34627 -8.98974,0.29313 -9.62925,0.41328 -12.5,2.34857 -7.36708,4.96645 -23.58268,23.9405 -22.27218,26.06092 0.6751,1.09234 11.4785,0.27797 19.64621,-1.48096 z"
       id="path3563"
       transform="scale(0.26458333)" />
    <path
       style="fill:#ffffff;fill-opacity:1;stroke:#000000;stroke-width:0.71811;stroke-opacity:0.457831"
       d="m 431.49595,944.10646 c -0.15909,-0.49107 -0.97963,-5.23214 -1.82344,-10.53571 -5.18791,-32.60767 -12.9882,-58.50748 -25.27691,-83.92857 -11.36722,-23.51485 -23.3401,-41.09875 -42.55623,-62.5 -44.33915,-49.38109 -79.1439,-86.88079 -96.17255,-103.61925 -13.55081,-13.31988 -20.56399,-19.28214 -30.68123,-26.08369 l -6.25744,-4.2067 9.66287,-1.18806 c 12.00917,-1.47654 19.19728,-3.39828 27.01044,-7.22121 4.93202,-2.41322 7.28228,-4.18349 12.52354,-9.43305 5.20991,-5.21815 7.06643,-7.68429 9.64286,-12.80924 l 3.19074,-6.3469 -0.006,-17.22453 c -0.006,-17.74716 -0.52825,-24.01015 -2.00227,-24.01034 -0.467,-6e-5 -4.37291,-1.9809 -8.67979,-4.40188 -12.6294,-7.09919 -22.95419,-17.85552 -32.4653,-33.82221 -5.97791,-10.03536 -6.02545,-10.2878 -1.35333,-7.18569 6.47427,4.29868 10.66271,5.5771 19.50966,5.95487 8.12812,0.34708 17.14021,-0.61695 18.50248,-1.97922 1.05017,-1.05017 0.059,-2.66968 -12.69359,-20.74092 -5.83907,-8.27433 -10.45058,-15.21015 -10.24779,-15.41294 0.20279,-0.20279 1.60521,0.26144 3.1165,1.03162 6.38837,3.25563 21.36984,9.09626 34.33415,13.38543 20.12438,6.65803 21.63796,6.55571 43.76915,-2.9586 10.57934,-4.54812 13.15086,-5.9347 13.98001,-7.53809 0.55882,-1.08064 3.12793,-8.33141 5.70914,-16.11282 6.64544,-20.0336 9.82855,-26.35748 16.6541,-33.08673 6.15001,-6.06325 12.3525,-9.50633 22.31562,-12.38769 11.85885,-3.4296 18.76999,-4.15401 40.07394,-4.20044 l 19.80619,-0.0432 4.65546,2.29187 c 4.77433,2.3504 14.66936,9.35077 17.09382,12.09326 1.20871,1.36726 1.31105,2.30816 0.9305,8.55458 -0.68589,11.25847 -4.32844,18.89894 -11.93144,25.02701 -2.16071,1.74155 -4.19503,3.61907 -4.5207,4.17227 -0.79228,1.34579 0.71562,3.07388 2.6822,3.07388 4.86522,0 14.23527,7.78978 17.51198,14.55856 3.54947,7.33223 2.91657,11.38386 -2.92693,18.73729 -13.49237,16.97872 -23.70694,37.64049 -29.2853,59.23751 -2.34064,9.06197 -2.38982,9.56102 -2.38982,24.25236 0,16.10747 0.46504,20.41978 4.32232,40.08099 3.72689,18.99656 9.34372,40.66999 18.8605,72.77615 6.4606,21.79579 9.01272,33.16367 14.99351,66.78572 7.61948,42.83423 7.22929,36.7763 3.30664,51.33715 -4.61329,17.1245 -10.58211,34.85732 -14.0644,41.78404 -3.10895,6.18408 -8.88448,15.05069 -15.87984,24.37881 -5.82729,7.77052 -31.93636,40.35714 -32.33496,40.35714 -0.17602,0 -0.4502,-0.40179 -0.60928,-0.89286 z M 413.71358,486.73142 c 7.58337,-1.55043 13.36196,-3.56319 21.4317,-7.46494 8.03661,-3.88574 12.40122,-7.43016 12.39505,-10.06579 -0.008,-3.28954 -1.43775,-6.80381 -3.6155,-8.88483 -3.24329,-3.67005 -22.01374,-2.00694 -24.75945,-0.77321 -3.33447,1.72433 -10.33803,8.46085 -16.61698,15.98339 -9.84652,11.7967 -9.8498,13.5121 -0.0244,12.73157 3.35042,-0.26615 8.38571,-0.95293 11.18951,-1.52617 z"
       id="path3565"
       transform="scale(0.26458333)"
       sodipodi:nodetypes="cssssscssssccsssssssssssssssscsssssssssssssssssccsscccssss" />
    <path
       style="fill:#d45500;fill-opacity:1;stroke:#000000;stroke-width:0.71811;stroke-opacity:0.457831"
       d="m 430.12514,931.9636 c -9.21042,-54.55987 -27.37108,-96.76008 -57.29991,-133.14869 -17.5506,-21.33868 -82.91784,-92.10666 -106.81619,-115.6415 -13.96438,-13.75198 -20.1691,-19.13342 -29.853,-25.89196 -2.92427,-2.04088 -4.85284,-3.71659 -4.28571,-3.72379 2.95629,-0.0375 16.76337,-2.32371 21.74542,-3.60063 3.14285,-0.80554 8.44465,-2.77992 11.78176,-4.38753 8.31475,-4.0055 18.26766,-13.84959 22.71331,-22.46497 l 3.00493,-5.82335 v -18.90879 c 0,-10.39983 -0.20459,-19.93172 -0.45464,-21.18198 -0.3935,-1.96748 -1.18599,-2.64306 -5.89286,-5.02347 -14.64072,-7.40429 -25.74265,-18.29704 -36.37623,-35.69083 -2.02523,-3.31276 -3.60167,-6.10378 -3.50318,-6.20227 0.0985,-0.0985 2.42484,0.93569 5.16967,2.29816 6.77523,3.36308 15.08355,4.43975 25.73538,3.33503 8.55308,-0.88704 10.40489,-1.82946 9.10037,-4.63133 -0.4183,-0.89844 -5.45745,-8.44983 -11.1981,-16.78087 -5.74066,-8.33105 -10.43756,-15.32866 -10.43756,-15.55024 0,-0.22158 1.33368,0.27751 2.96373,1.10911 8.9062,4.5436 39.11957,15.16429 46.96701,16.50998 8.54441,1.4652 16.15814,-0.62956 35.51996,-9.77261 l 7.9507,-3.75448 1.57045,-4.19721 c 0.86375,-2.30846 3.33178,-9.34006 5.48448,-15.62578 5.96866,-17.42791 9.28747,-23.76633 15.8657,-30.30099 6.12377,-6.08321 11.01357,-8.95967 20.10655,-11.82779 11.86187,-3.74149 14.68573,-4.06647 38.6265,-4.44529 l 22.55506,-0.35689 4.23065,2.15075 c 4.59191,2.3344 13.05195,8.17232 16.19493,11.17544 1.60143,1.53017 1.96328,2.49827 1.95889,5.24082 -0.0181,11.28711 -3.81351,20.49202 -11.25876,27.30562 -2.644,2.41969 -5.07725,4.87616 -5.40722,5.45881 -0.78136,1.37972 1.3759,3.81149 3.38922,3.82051 4.50665,0.0202 14.12565,8.48992 17.24077,15.18085 3.0529,6.5573 2.14308,9.79257 -5.66519,20.14506 -12.20003,16.17523 -21.98503,36.86484 -27.24065,57.59813 -1.63189,6.43775 -1.76706,8.25445 -1.76706,23.74908 0,14.60664 0.23146,18.14897 1.78838,27.37056 3.69167,21.86558 8.10503,39.93598 19.51123,79.88836 3.92396,13.74441 8.12987,29.43767 9.34647,34.8739 3.88958,17.38027 12.28168,64.8788 12.70366,71.90165 0.44725,7.44339 -0.0731,9.80112 -7.39254,33.49306 -8.09164,26.19154 -12.01577,32.82062 -40.74349,68.82836 -8.38424,10.50893 -15.34068,19.10715 -15.45876,19.10715 -0.11808,0 -1.09644,-5.22322 -2.17413,-11.60715 z M 408.80815,488.16863 c 9.4885,-1.40891 17.12058,-3.78855 26.36766,-8.2213 8.01626,-3.84274 13.08514,-8.0014 13.07881,-10.73027 -0.008,-3.27621 -1.42507,-6.80418 -3.64681,-9.07663 l -2.233,-2.28397 H 431.9708 c -13.13031,0 -14.00661,0.3817 -23.47896,10.22687 -12.17902,12.65839 -15.7951,18.54282 -12.55466,20.4302 1.73477,1.01042 4.18565,0.94474 12.87097,-0.3449 z"
       id="path3567"
       transform="scale(0.26458333)" />
    <path
       style="fill:#ff7f2a;fill-opacity:1;stroke:#000000;stroke-width:0.71811;stroke-opacity:0.457831"
       d="m 432.54432,941.92007 c 0,-0.23371 -1.12455,-6.55987 -2.49899,-14.05813 -9.14559,-49.89346 -24.9901,-88.00221 -50.63725,-121.79119 -11.00625,-14.50026 -43.06695,-50.16937 -84.42641,-93.92857 -23.72463,-25.10117 -43.58994,-44.37619 -52.94701,-51.37371 -4.40531,-3.29444 -7.8417,-6.26165 -7.63642,-6.5938 0.20529,-0.33216 1.10121,-0.60392 1.99094,-0.60392 3.74508,0 15.56587,-2.43008 21.83965,-4.48972 4.23273,-1.38959 8.67536,-3.50173 11.89526,-5.65533 7.18458,-4.80535 15.09178,-13.43125 18.73971,-20.44304 l 2.96623,-5.70148 -0.004,-18.8195 c -0.002,-10.35073 -0.31901,-19.95346 -0.70405,-21.3394 -0.61273,-2.20555 -1.54199,-2.99633 -7.44916,-6.33908 -8.79793,-4.97858 -16.9751,-11.49832 -22.56004,-17.98736 -4.2666,-4.95727 -14.58501,-19.87524 -14.08978,-20.37046 0.12838,-0.12838 2.20802,0.56415 4.62141,1.53897 6.73755,2.72141 14.48195,3.56933 23.55343,2.57882 7.45532,-0.81404 10.91789,-2.06113 10.91789,-3.9322 0,-0.50977 -4.64122,-7.80757 -10.31381,-16.21735 -5.6726,-8.40977 -10.222,-15.3823 -10.1098,-15.49451 0.11221,-0.1122 2.10164,0.64266 4.42095,1.67748 6.0972,2.72041 23.55604,9.02793 33.50266,12.10382 15.6859,4.8507 22.06493,3.79761 46.08353,-7.60783 l 7.63349,-3.62483 5.15512,-14.75993 c 7.43483,-21.2871 11.04326,-28.41 17.83187,-35.1994 6.14122,-6.14192 11.79234,-9.37524 21.52799,-12.31733 9.3998,-2.84059 13.75535,-3.28382 37.21095,-3.7867 l 21.87153,-0.46891 4.67578,2.61484 c 6.06695,3.39284 15.87636,10.67558 16.47277,12.22979 1.38585,3.61149 -0.47654,14.48478 -3.50711,20.47569 -1.06698,2.10922 -4.30605,6.26874 -7.19794,9.24338 -3.01978,3.10617 -5.25798,6.02359 -5.25798,6.85358 0,1.71573 2.11143,3.80942 3.84171,3.80942 4.92739,0 15.49827,10.60439 17.61562,17.67146 1.24695,4.16194 -0.0857,7.33121 -7.45375,17.72685 -10.66472,15.04686 -19.22903,32.36411 -24.3325,49.20096 -3.4793,11.47851 -3.94718,15.21835 -3.93745,31.47215 0.0153,25.51568 3.74115,44.58368 20.23786,103.57143 3.7355,13.35715 7.75998,28.14286 8.94329,32.85715 3.98875,15.89118 13.19622,66.62436 14.09569,77.66734 0.50891,6.24798 -0.23082,9.73229 -6.24855,29.43223 -7.49694,24.54235 -11.52909,32.70258 -25.18414,50.96732 -8.25919,11.04735 -31.14921,39.86158 -31.14921,39.211 z m -18.21429,-454.1476 c 16.34815,-3.26892 34.64286,-13.11152 34.64286,-18.63794 0,-2.79616 -1.63951,-6.92278 -3.78414,-9.52457 l -2.15352,-2.6126 -11.13831,0.27876 c -9.66177,0.24181 -11.52337,0.48119 -14.04302,1.8058 -3.35414,1.76332 -17.5365,16.23365 -20.92608,21.35099 -3.25661,4.91658 -3.55825,6.63614 -1.46188,8.33368 1.47624,1.19539 2.38877,1.31889 6.71482,0.90876 2.75353,-0.26104 8.2207,-1.11734 12.14927,-1.90288 z"
       id="path3569"
       transform="scale(0.26458333)" />
    <path
       style="fill:#ff7f2a;fill-opacity:1;stroke:#000000;stroke-width:0.71811;stroke-opacity:0.457831"
       d="M 430.49744,926.89456 C 420.45215,872.71293 402.55721,832.52558 372.2677,796.12585 339.50292,756.7515 262.5533,676.07985 242.77192,660.36639 l -7.18111,-5.70436 8.44182,-1.54384 c 15.82862,-2.89474 24.57559,-6.72555 32.8511,-14.3874 6.11919,-5.66544 10.42941,-11.1753 13.49117,-17.24612 l 2.31295,-4.58608 -0.25034,-20.17811 c -0.29005,-23.37941 0.33657,-21.459 -8.7519,-26.82209 -12.67614,-7.48016 -21.39202,-15.74294 -30.29087,-28.71617 -2.87155,-4.18632 -5.12155,-7.61131 -5,-7.61112 0.12155,2e-4 1.86533,0.62535 3.87505,1.3892 6.06688,2.30593 14.77404,3.13557 22.8774,2.17984 3.87199,-0.45667 7.81391,-1.20554 8.75981,-1.66414 3.84778,-1.86552 3.70065,-2.27778 -6.28323,-17.60567 -5.18548,-7.96108 -9.30132,-14.60153 -9.1463,-14.75654 0.15501,-0.15502 3.62454,1.04343 7.71006,2.6632 4.08552,1.61978 13.21393,4.88481 20.28536,7.25564 11.18672,3.75055 13.73876,4.35389 19.64286,4.6439 4.93038,0.24218 8.02429,0.009 11.31572,-0.85139 4.57546,-1.19659 16.28551,-6.02606 25.45762,-10.49926 l 4.98762,-2.43243 5.20154,-14.62564 c 6.89045,-19.37451 11.086,-27.89365 16.68483,-33.87881 5.90287,-6.31019 11.48732,-9.78723 20.54087,-12.78934 9.94428,-3.29746 15.60315,-3.93145 40.1354,-4.49654 l 20.46208,-0.47133 5.64287,3.35991 c 3.10358,1.84796 7.73216,5.04517 10.28573,7.10493 4.36878,3.52393 4.6555,3.93853 4.85705,7.02327 0.25417,3.89037 -1.38563,11.44532 -3.42665,15.78741 -0.80312,1.70854 -4.02493,6.10929 -7.15959,9.77944 -3.13466,3.67015 -5.69938,7.21087 -5.69938,7.86827 0,1.61989 2.96761,4.30144 4.76029,4.30144 4.17599,0 15.08241,11.42632 16.7821,17.58207 0.91713,3.3216 -0.84447,6.99534 -9.72216,20.27507 -10.70109,16.00729 -19.56846,35.35347 -24.06351,52.5 -1.56688,5.9769 -1.6819,7.70833 -1.63697,24.64286 0.0775,29.21307 2.51284,41.41281 23.17042,116.07143 6.01484,21.73825 11.64317,47.90502 16.36254,76.07143 4.6632,27.83113 4.74207,25.77536 -1.83605,47.85714 -8.25751,27.71925 -12.20331,35.83639 -26.90954,55.35714 -7.93381,10.53119 -27.95927,35.75479 -28.79599,36.27076 -0.33612,0.20728 -1.69294,-5.45813 -3.01515,-12.5898 z M 409.09497,489.32522 c 4.46665,-0.76361 10.8468,-2.23985 14.17812,-3.28054 14.23994,-4.44846 26.42308,-12.36724 26.40711,-17.16405 -0.008,-2.27275 -2.63334,-8.20025 -4.85307,-10.95549 l -1.38331,-1.71703 -11.52236,0.39985 c -10.61959,0.36852 -11.76149,0.53999 -14.57458,2.18857 -4.17603,2.44732 -19.20244,18.06331 -21.88853,22.74737 -2.64719,4.61619 -2.68123,5.18172 -0.4465,7.41646 2.13609,2.13608 3.51378,2.17178 14.08312,0.36486 z"
       id="path3571"
       transform="scale(0.26458333)" />
    <path
       style="fill:#803300;fill-opacity:1;stroke:#000000;stroke-width:0.71811;stroke-opacity:0.457831"
       d="m 492.88838,512.85646 c -0.0252,-8.93272 -7.05769,-19.16057 -16.09348,-23.40577 l -4.03554,-1.89598 3.84666,-3.51563 c 6.49599,-5.93697 10.22401,-14.29181 10.22401,-22.91292 0,-2.4531 0.20142,-4.66159 0.4476,-4.90777 0.24618,-0.24618 1.13011,0.58418 1.96428,1.84524 0.89789,1.35736 3.26526,3.16711 5.80241,4.43569 4.27849,2.13925 4.30677,2.14282 16.78571,2.12198 6.875,-0.0115 17.80357,-0.16906 24.28572,-0.35017 10.01705,-0.27988 12.33307,-0.13926 15.43312,0.93706 3.20445,1.11257 7.48486,4.34989 6.65303,5.03177 -0.16525,0.13545 -4.80044,2.56644 -10.30044,5.40221 -17.57175,9.05987 -31.85143,19.48991 -47.85714,34.95538 l -7.14286,6.90177 z"
       id="path3573"
       transform="scale(0.26458333)" />
    <path
       style="fill:none;stroke:#000000;stroke-width:0.264583px;stroke-linecap:butt;stroke-linejoin:miter;stroke-opacity:1"
       d="m 31.183035,116.03869 c -8.641213,14.29388 10.28193,39.06487 -8.123094,22.03558 -2.081165,-2.58176 1.928353,3.14113 0,0 L 14.930059,123.7872 c -2.459793,7.62387 -2.308014,9.45612 0.755953,16.44197 l 6.236607,16.44196"
       id="path3575"
       sodipodi:nodetypes="cccccc" />
    <path
       style="fill:#ffff00;stroke:#000000;stroke-width:0.264583px;stroke-linecap:butt;stroke-linejoin:miter;stroke-opacity:1"
       d="m 53.861608,177.45982 c 5.527537,7.17894 14.628884,19.39633 16.144028,26.56874 1.972652,9.33817 6.783368,14.59149 4.64466,12.17382"
       id="path3583"
       sodipodi:nodetypes="csc" />
    <path
       style="fill:#ffff00;fill-opacity:1;stroke:#000000;stroke-width:0.71811;stroke-opacity:0.457831"
       d="M 256.70441,792.1038 C 184.65352,725.17667 151.4639,690.21911 119.01641,647.0815 102.98194,625.76432 82.020205,593.74189 83.222283,592.4002 83.743527,591.81842 70.007264,554.812 58.866856,526.78503 c -2.810815,-7.07143 -5.699185,-15.10714 -6.4186,-17.85714 -1.554987,-5.94401 -1.706775,-15.934 -0.33644,-22.14286 1.72457,-7.81386 4.207626,-16.02985 4.744331,-15.69814 0.794674,0.49113 27.385748,47.45409 27.566507,48.68568 0.263825,1.79755 3.985966,6.68225 4.941205,6.48451 0.495111,-0.10248 2.940046,1.58762 5.433187,3.7558 11.995294,10.43175 17.698254,14.27215 21.193994,14.27215 4.85764,0 4.79824,-3.52124 -0.46388,-27.5 -5.76227,-26.25786 -6.98709,-40.19185 -4.8052,-54.66559 1.24877,-8.28383 6.0892,-22.37709 7.27745,-21.18884 0.19237,0.19237 0.64614,6.40974 1.00838,13.81638 2.23781,45.75543 11.33743,85.35045 28.86728,125.60948 11.0279,25.32669 27.30103,52.80052 46.99365,79.33915 4.0594,5.47061 7.36796,10.10728 7.35237,10.30371 -0.0156,0.19643 0.65755,1.32143 1.49588,2.5 0.83833,1.17857 52.72686,71.19642 69.91102,103.21428 38.5174,71.76635 4.6899,35.17881 4.3188,35.54992 -0.16311,0.16311 -9.72219,-8.45877 -21.24238,-19.15972 z"
       id="path3585"
       transform="scale(0.26458333)"
       sodipodi:nodetypes="ssssssssssssssssssssss" />
    <path
       style="fill:#ff0000;fill-opacity:1;stroke:#000000;stroke-width:0.71811;stroke-opacity:0.457831"
       d="m 369.90522,905.33372 c -31.62462,-37.59216 -31.36084,-37.31773 -73.43233,-76.39647 -8.06078,-7.48738 -12.96038,-12.62645 -14.57471,-15.28707 -6.11395,-10.07654 -11.98791,-25.03905 -15.8599,-40.39934 -2.49874,-9.91256 -4.42667,-15.05008 -9.39559,-25.03724 -6.06624,-12.19267 -14.02666,-25.23423 -24.99672,-40.95213 -3.10738,-4.45224 -5.52389,-8.22086 -5.37005,-8.37471 0.23437,-0.23437 72.35841,77.20941 103.86681,111.52783 37.39158,40.72629 52.98335,64.84656 62.73625,97.05218 2.84306,9.38823 7.01065,28.97991 6.668,31.34606 -0.16306,1.12605 -7.52541,-7.18942 -29.64176,-33.47911 z"
       id="path3587"
       transform="scale(0.26458333)" />
    <path
       style="fill:#c83737;fill-opacity:1;stroke:#000000;stroke-width:0.71811;stroke-opacity:0.457831"
       d="M 75.213351,580.20579 C 64.285727,560.82195 52.058205,535.45315 42.456957,512.24512 c -4.124046,-9.9686 -4.455784,-11.23202 -7.060237,-26.88866 -8.581951,-51.59033 -8.408739,-78.04535 0.715271,-109.24483 1.953378,-6.67957 7.721858,-22.1302 7.818104,-20.94047 0.02354,0.29094 1.016305,7.36237 2.206153,15.71429 6.844165,48.04136 11.433951,65.94081 24.44567,95.3343 3.188599,7.20305 6.139924,12.98123 6.558498,12.84039 0.511065,-0.17196 0.683477,-4.22428 0.524895,-12.33701 -0.285655,-14.61364 0.91528,-44.88548 2.420354,-61.00953 2.770342,-29.67904 8.574539,-59.03018 16.615376,-84.02201 l 2.727698,-8.47799 22.398131,-31.60013 c 12.31897,-17.38007 22.52173,-31.47654 22.67279,-31.32548 0.15106,0.15106 -1.17205,6.81755 -2.94024,14.81442 -14.95392,67.63104 -20.98763,109.80899 -23.00157,160.78977 -0.25995,6.58035 -0.71093,11.96428 -1.00217,11.96428 -0.82723,0 -4.72805,8.42419 -6.32183,13.6526 -2.51708,8.25729 -3.20731,15.59296 -2.74204,29.14177 0.45889,13.36277 1.31089,19.05305 6.05206,40.41992 3.72618,16.79264 4.01223,18.96295 2.73042,20.71595 -0.96807,1.3239 3.13404,17.05192 0.86556,15.97016 -3.2536,-1.55154 -15.51905,-23.35201 -23.353692,-30.25754 L 88.303033,521.78503 72.466741,494.0634 C 63.75678,478.8165 56.377596,466.60221 56.068553,466.92054 c -1.073457,1.10571 -5.576848,17.91699 -6.395173,23.87335 -1.440923,10.48808 -0.107718,17.60978 6.269646,33.49114 6.797646,16.92798 23.837905,62.2872 23.519331,62.60577 -0.168942,0.16895 -2.080995,-2.83931 -4.249006,-6.68501 z"
       id="path3591"
       transform="scale(0.26458333)"
       sodipodi:nodetypes="ssssssssssscssssssssssscssssss" />
    <path
       style="fill:#ff6600;stroke:#000000;stroke-width:0.264583px;stroke-linecap:butt;stroke-linejoin:miter;stroke-opacity:1"
       d="m 37.608631,192.0119 -3.401787,-0.56696 -3.401785,-1.32292 -5.291666,-6.99256 1.511905,7.18155 3.779762,4.7247 3.401785,3.40179 0.377976,1.70089"
       id="path3593" />
    <path
       style="fill:#ffff00;fill-opacity:1;stroke:#000000;stroke-width:0.71811;stroke-opacity:0.457831"
       d="M 112.90146,739.17763 C 92.779578,720.16518 77.214258,704.28518 70.289941,695.70461 53.654134,675.08965 43.445085,653.69508 38.480781,629.0438 l -1.893309,-9.40162 1.273013,-22.14286 c 0.700158,-12.17857 1.32283,-22.20203 1.383715,-22.27434 0.06089,-0.0723 2.336724,4.5884 5.057418,10.35714 9.070112,19.23154 23.074743,46.94409 28.617784,56.62925 3.013579,5.26551 9.154168,15.1047 13.645754,21.86486 4.491585,6.76015 9.142278,14.15301 10.334872,16.42857 4.914462,9.37716 16.851872,22.45855 32.980722,36.14131 4.62432,3.923 8.32075,7.2182 8.21428,7.32266 -0.59576,0.58453 -8.94042,-1.51598 -14.58393,-3.67107 l -6.53321,-2.49485 -9.89536,-13.17932 c -9.000492,-11.9875 -11.462099,-14.5454 -11.250072,-11.69019 0.04062,0.547 1.284425,6.78026 2.764009,13.85169 l 2.690153,12.85715 6.4884,8.21428 c 3.56862,4.51786 9.82503,11.63428 13.90311,15.81427 5.14359,5.27212 7.34164,8.02187 7.17617,8.97737 -0.18537,1.07029 -3.74218,-1.93306 -15.95284,-13.47047 z"
       id="path3595"
       transform="scale(0.26458333)" />
    <path
       style="fill:#ffb380;fill-opacity:1;stroke:#000000;stroke-width:0.71811;stroke-opacity:0.457831"
       d="m 307.2049,901.8127 -40.69657,-25.29185 -10.25802,-12.01077 c -36.20618,-42.39256 -63.81655,-66.30185 -100.4993,-87.02765 -7.26344,-4.10385 -9.77418,-6.03104 -16.53463,-12.6916 l -7.9708,-7.85303 0.91946,-2.93352 c 1.23246,-3.93218 9.60194,-26.32286 9.98098,-26.7019 0.16484,-0.16484 2.53567,1.48432 5.2685,3.6648 7.61379,6.07493 45.75374,34.55972 52.7312,39.38227 15.76836,10.89847 30.66125,28.00375 54.82688,62.97156 l 9.92828,14.36629 43.81607,38.83458 c 38.40061,34.03482 43.66747,38.94493 42.61377,39.72744 -0.66127,0.49107 -1.70337,0.88439 -2.31578,0.87405 -0.61241,-0.0104 -19.42694,-11.40014 -41.81004,-25.31067 z"
       id="path3599"
       transform="scale(0.26458333)" />
    <path
       style="fill:#ff2a2a;fill-opacity:1;stroke:#000000;stroke-width:0.71811;stroke-opacity:0.457831"
       d="M 222.67165,896.76135 C 170.4575,874.94161 163.43287,872.22894 145.0252,866.77697 113.89643,857.55727 104.82835,853.62618 84.596663,840.58071 L 77.006151,835.68632 65.558466,818.37853 C 53.521626,800.18 49.371702,792.71116 46.965561,784.91589 c -3.709137,-12.01663 -2.413946,-24.2406 4.28612,-40.45229 1.177129,-2.84821 2.35215,-5.17857 2.61116,-5.17857 0.25901,0 1.556262,3.86376 2.882781,8.58614 5.468756,19.46863 14.949685,39.71553 27.420104,58.55672 5.881245,8.8858 8.273902,11.51926 15.878594,17.47667 7.36976,5.77337 12.13965,8.39161 19.64285,10.78216 3.33929,1.06391 7.95218,2.87624 10.25085,4.0274 8.33346,4.17333 6.25129,0.603 -8.39418,-14.39362 -14.07123,-14.40862 -19.61693,-21.26097 -27.254343,-33.67587 -5.779247,-9.39439 -9.399591,-14.6862 -16.234928,-23.73039 -2.321573,-3.0718 -4.109328,-5.67434 -3.972789,-5.78342 0.406042,-0.32441 26.15139,15.5955 33.07456,20.45201 8.81539,6.18387 18.56578,15.69225 24.18191,23.58173 6.75834,9.49402 44.66228,45.90375 58.25972,55.96306 18.98446,14.04459 55.06248,38.73341 78.40092,53.65112 0.73213,0.46797 1.00971,0.85824 0.61686,0.86726 -0.39286,0.009 -21.0677,-8.48906 -45.9441,-18.88465 z"
       id="path3601"
       transform="scale(0.26458333)" />
    <path
       style="fill:#ff8080;fill-opacity:1;stroke:#000000;stroke-width:0.71811;stroke-opacity:0.457831"
       d="m 230.40146,899.20835 c -48.11306,-20.15247 -68.49439,-28.0613 -86.12233,-33.41917 -31.83117,-9.67483 -38.53396,-12.67922 -63.231309,-28.34214 -2.34488,-1.48711 -4.577971,-4.02071 -7.819519,-8.87179 -17.522911,-26.22358 -23.777443,-37.17888 -26.101696,-45.71916 -1.930348,-7.0929 -1.691315,-17.27614 0.603587,-25.71391 2.406656,-8.84867 5.926176,-17.16498 6.471419,-15.29137 7.175328,24.65635 14.971604,42.25935 27.41674,61.9035 6.252469,9.86927 11.27621,15.54407 18.764478,21.19627 7.72837,5.83344 9.24846,6.64996 20.73974,11.14044 19.06151,7.44873 19.06478,6.84116 0.0711,-13.23456 -14.15984,-14.96652 -17.04892,-18.60196 -27.752349,-34.92183 -5.294415,-8.07257 -11.071057,-16.55508 -12.836983,-18.85004 -1.765927,-2.29495 -3.027218,-4.3562 -2.80287,-4.58055 0.224348,-0.22434 4.19576,1.94461 8.825363,4.8199 23.945459,14.87171 32.454569,21.81281 43.296659,35.31824 9.25322,11.52623 40.68126,42.124 55.83508,54.36001 7.93379,6.40616 35.00442,25.33211 61.05276,42.68395 8.04331,5.35796 14.15045,9.71866 13.57143,9.69044 -0.57901,-0.0282 -14.07062,-5.50392 -29.98133,-12.16823 z"
       id="path3603"
       transform="scale(0.26458333)" />
    <path
       style="fill:#ff2a2a;fill-opacity:1;stroke:#000000;stroke-width:0.71811;stroke-opacity:0.457831"
       d="m 222.90146,895.30613 c -40.2907,-16.76467 -58.68149,-23.76574 -85,-32.3581 -14.92524,-4.87274 -24.93677,-8.58906 -30.71429,-11.40125 -9.464624,-4.6069 -24.56084,-13.55448 -27.780002,-16.46531 -2.49447,-2.25555 -17.103817,-24.14243 -23.719589,-35.53533 -6.863774,-11.81997 -8.839179,-17.94678 -8.835589,-27.40396 0.0033,-8.60373 1.035328,-14.14984 4.306469,-23.14217 l 2.312287,-6.35645 4.426437,12.78502 c 5.21173,15.05322 9.512951,24.99648 15.445433,35.70567 14.692507,26.52261 25.507077,36.95453 46.991394,45.32868 12.08569,4.71075 13.63041,5.14438 15.07339,4.23131 1.7605,-1.114 -0.73867,-4.49919 -13.22023,-17.90717 -6.28571,-6.75227 -13.19642,-14.50068 -15.35714,-17.21872 -4.13519,-5.20179 -27.025814,-38.61556 -26.729182,-39.01696 0.296363,-0.40104 17.454063,10.47248 24.850922,15.74902 8.71651,6.21791 14.9899,12.08217 24.28253,22.69891 9.88525,11.29381 23.64445,25.28231 37.23859,37.85916 18.65514,17.25912 25.66806,22.57409 65,49.26232 22.58901,15.32751 23.19214,15.7559 22.10714,15.70188 -0.37321,-0.0186 -14.17857,-5.65103 -30.67857,-12.51655 z"
       id="path3605"
       transform="scale(0.26458333)" />
    <path
       style="fill:#ff2a2a;fill-opacity:1;stroke:#000000;stroke-width:0.71811;stroke-opacity:0.457831"
       d="m 220.40146,893.59465 c -35.48156,-14.7339 -53.3268,-21.56795 -79.26598,-30.35587 -23.90693,-8.09942 -30.46144,-10.61603 -37.87688,-14.54289 -8.529489,-4.5168 -19.366771,-11.12891 -22.162409,-13.52188 -4.421518,-3.78466 -20.169843,-27.29505 -27.150049,-40.53183 -5.308313,-10.06632 -6.044797,-12.89616 -6.04167,-23.21429 0.0028,-9.34782 0.684422,-13.25935 3.778916,-21.68656 l 1.799603,-4.90084 3.715593,10.61513 c 7.186607,20.53151 13.956447,34.69758 23.563515,49.30729 11.67322,17.75175 23.698741,26.96468 45.019171,34.48986 7.54688,2.66371 10.78846,2.69332 10.5011,0.0959 -0.22618,-2.0445 -3.47362,-6.03787 -17.2536,-21.21668 -5.6657,-6.24083 -11.95967,-13.59697 -13.9866,-16.34697 -5.902146,-8.00762 -22.656429,-32.58092 -22.386819,-32.83446 0.419632,-0.39462 17.751859,10.95588 24.688059,16.16767 3.92692,2.95065 10.70059,9.33109 16.78149,15.80728 16.20188,17.25506 43.75223,44.54634 52.70513,52.20952 11.39362,9.75229 20.58038,16.51517 47.27252,34.79987 12.69655,8.69742 23.21855,15.93422 23.38225,16.0818 1.29367,1.16633 -5.12196,-1.3025 -27.08334,-10.42206 z"
       id="path3607"
       transform="scale(0.26458333)" />
    <path
       style="fill:#d45500;fill-opacity:1;stroke:#000000;stroke-width:0.71811;stroke-opacity:0.457831"
       d="m 229.68717,896.66529 c -6.08928,-2.55629 -20.875,-8.59141 -32.85714,-13.41138 -20.47411,-8.23597 -27.87963,-10.97094 -68.84517,-25.42561 -8.98984,-3.17206 -19.11484,-7.16483 -22.5,-8.87282 -8.619912,-4.34922 -21.413412,-12.2053 -24.269429,-14.9031 -5.230319,-4.94058 -21.153952,-29.07598 -27.436818,-41.58592 -4.39271,-8.7464 -4.944781,-11.24269 -4.90038,-22.15794 0.03469,-8.52853 0.24768,-10.05554 2.29323,-16.44133 l 2.254984,-7.0396 3.024587,8.55015 c 4.706871,13.30577 6.55427,17.74876 12.168172,29.26444 10.296558,21.1211 22.136512,36.28874 34.884204,44.68859 9.90293,6.52535 28.14851,13.64432 31.90996,12.45048 2.17895,-0.69157 1.73373,-3.39686 -1.1953,-7.26293 -1.43658,-1.89617 -6.18985,-7.46543 -10.56282,-12.37614 -12.1992,-13.69934 -16.35543,-18.58006 -19.46428,-22.85715 -6.146347,-8.45603 -18.856906,-27.31355 -18.590055,-27.5804 0.352463,-0.35247 17.597035,11.10865 21.943405,14.58405 1.76785,1.4136 16.71428,16.11922 33.21428,32.67915 37.47205,37.60816 41.94067,41.35795 82.5,69.2288 9.625,6.61395 17.80536,12.29668 18.17857,12.6283 1.34718,1.19706 -0.80392,0.43555 -11.75,-4.15964 z"
       id="path3609"
       transform="scale(0.26458333)" />
    <path
       style="fill:#d45500;fill-opacity:1;stroke:#000000;stroke-width:0.71811;stroke-opacity:0.457831"
       d=""
       id="path3611"
       transform="scale(0.26458333)" />
    <path
       style="fill:#ff9955;fill-opacity:1;stroke:#000000;stroke-width:0.71811;stroke-opacity:0.457831"
       d="M 213.97289,889.56726 C 187.76285,878.72078 172.51052,872.8742 144.30177,862.86066 113.89197,852.0658 107.71072,849.55433 98.416173,844.21716 84.787824,836.39141 81.466288,833.72591 75.736246,826.01673 64.348057,810.69511 51.874683,788.88151 50.377308,781.66869 c -1.328503,-6.39936 -0.552665,-21.70475 1.404014,-27.69778 l 1.618418,-4.95698 3.765281,10.31412 c 11.891852,32.575 27.72161,57.60926 43.549339,68.87189 7.61198,5.41651 22.40473,12.18848 30.2664,13.85565 5.04254,1.06934 6.90514,0.18739 6.27355,-2.97059 -0.54385,-2.71926 -2.59809,-5.38292 -16.37161,-21.22854 -5.97598,-6.875 -12.18072,-14.10714 -13.78831,-16.07143 -4.41698,-5.39701 -18.333912,-26.09711 -17.862409,-26.56861 0.227197,-0.2272 4.199345,2.12168 8.826997,5.21972 7.587062,5.07927 11.502442,8.68696 39.842482,36.7115 17.28571,17.09328 34.94314,34.09561 39.23871,37.78296 9.75044,8.36985 22.07642,17.54249 41.83272,31.1307 8.44643,5.80939 15.6625,10.83986 16.03571,11.17884 1.6631,1.51052 -2.6167,-0.0506 -21.03571,-7.67288 z"
       id="path3613"
       transform="scale(0.26458333)" />
    <path
       style="fill:#ff2c00;fill-opacity:1;stroke:#000000;stroke-width:0.71811;stroke-opacity:0.457831"
       d="M 221.83003,892.0284 C 203.59877,884.36395 174.36591,872.96068 155.40146,866.11568 118.3583,852.74539 113.05761,850.70881 105.04432,846.76797 94.124743,841.39785 85.041123,835.31475 80.363963,830.24008 73.124775,822.38563 58.001481,798.36436 53.126642,786.97733 c -1.81105,-4.23038 -2.285672,-6.45342 -2.56196,-11.99971 -0.34485,-6.92265 0.671232,-17.34655 2.086655,-21.40684 0.760578,-2.18179 0.879485,-1.98101 4.518429,7.6296 12.603406,33.28617 28.114445,57.34906 43.846184,68.02033 5.19719,3.5254 18.33242,9.9207 24.92407,12.13508 5.23853,1.75981 10.33263,1.96151 11.58002,0.4585 2.17398,-2.61949 0.46313,-5.18001 -17.43959,-26.10069 -5.54705,-6.48214 -11.40024,-13.39285 -13.0071,-15.35714 -4.21266,-5.14971 -15.469172,-21.79795 -15.033207,-22.23392 0.466618,-0.46662 5.3462,2.5825 10.713477,6.69454 2.27583,1.74359 18.8294,17.48748 36.78571,34.98641 17.95632,17.49894 35.37999,34.12774 38.71927,36.95289 8.38308,7.09237 20.67216,16.25817 37.32143,27.83617 7.75893,5.3956 14.10714,9.94442 14.10714,10.10848 0,0.54792 -1.02939,0.19777 -7.85714,-2.67263 z"
       id="path3615"
       transform="scale(0.26458333)" />
    <path
       style="fill:#ffff00;stroke:#000000;stroke-width:0.71811;stroke-opacity:0.457831"
       d="M 106.83003,732.21818 C 76.155101,702.87948 65.616171,690.56591 54.800891,671.42789 47.690406,658.84563 41.575533,641.74777 38.602827,626.13632 c -1.16648,-6.12589 -1.204047,-8.08398 -0.424824,-22.14286 0.470149,-8.48249 1.050963,-17.94622 1.290699,-21.0305 l 0.435884,-5.60779 1.56163,3.82207 c 2.313714,5.6628 20.887985,42.96343 27.33484,54.89351 3.078275,5.69643 9.100671,15.82143 13.383103,22.5 4.282432,6.67857 10.121199,15.93019 12.975037,20.55915 2.853838,4.62896 7.087934,10.73611 9.409104,13.57143 4.72982,5.7775 18.55288,19.35695 26.32721,25.86322 2.81247,2.35373 5.03915,4.35395 4.94817,4.44492 -0.30483,0.30484 -5.74322,-1.26695 -11.99967,-3.4681 l -6.2003,-2.18139 -8.20275,-10.86066 C 97.905397,691.22591 95.405342,688.76516 95.398746,692.67789 c -0.0015,0.88393 1.154558,7.39286 2.568995,14.46429 l 2.571709,12.85714 6.65538,8.21429 c 3.66046,4.51785 9.4419,11.1875 12.84765,14.82142 3.40575,3.63393 5.92442,6.60644 5.59705,6.60558 -0.32737,-8.6e-4 -8.79165,-7.84095 -18.8095,-17.42243 z"
       id="path893"
       transform="scale(0.26458333)" />
    <path
       style="fill:#ffb380;stroke:#000000;stroke-width:0.71811;stroke-opacity:0.457831"
       d="m 130.90959,752.76936 c -0.27947,-0.27948 -0.50813,-1.02416 -0.50813,-1.65486 0,-0.63069 -2.75592,-3.87177 -6.12426,-7.20238 -3.36835,-3.33061 -9.55474,-10.34352 -13.74755,-15.58424 l -7.62329,-9.52859 -2.26638,-10.82654 c -1.246503,-5.95459 -2.183711,-10.9092 -2.08268,-11.01023 0.101031,-0.10103 4.06335,4.90674 8.80516,11.12838 l 8.62148,11.31207 6.67827,2.55618 c 3.67304,1.4059 9.3277,2.96176 12.5659,3.45747 3.2382,0.49572 5.88763,1.15555 5.88763,1.46631 0,0.43743 -5.30897,14.91666 -9.20782,25.11262 -0.26961,0.70507 -0.71886,1.05328 -0.99833,0.77381 z"
       id="path895"
       transform="scale(0.26458333)" />
    <path
       style="fill:#ff7f2a;stroke:#000000;stroke-width:0.71811;stroke-opacity:0.457831"
       d="M 93.704751,718.18832 C 75.875291,700.21076 68.817879,692.03356 61.670036,681.07075 52.641036,667.22276 46.536228,653.6746 42.206082,637.87516 38.270976,623.5171 37.953883,620.21237 38.898178,603.40034 c 0.45812,-8.15628 1.019838,-16.50934 1.248262,-18.56237 l 0.415317,-3.73278 7.999077,16.58992 c 8.88181,18.4207 17.016822,34.17736 23.500763,45.5185 6.53502,11.43048 25.851735,41.86749 30.145673,47.5 3.61869,4.74677 20.15877,21.4956 27.83704,28.18837 1.96429,1.71218 3.08929,2.94773 2.5,2.74566 -0.58928,-0.20206 -3.80357,-1.26101 -7.14285,-2.35321 -3.33929,-1.0922 -6.52346,-2.3447 -7.07594,-2.78332 -0.55248,-0.43863 -3.81796,-4.52256 -7.25662,-9.0754 -12.343181,-16.34258 -14.99285,-18.95405 -16.155941,-15.92308 -0.244014,0.63588 0.769606,7.40255 2.252488,15.03703 l 2.696149,13.88086 5.334914,6.44561 c 2.9342,3.54509 5.12955,6.65098 4.87855,6.90197 -0.251,0.251 -7.61764,-6.7644 -16.370309,-15.58978 z"
       id="path897"
       transform="scale(0.26458333)" />
    <path
       style="fill:none;stroke:#000000;stroke-width:0.264583px;stroke-linecap:butt;stroke-linejoin:miter;stroke-opacity:1"
       d="m 100.16369,211.66666 c 10.02801,2.03232 11.33929,8.31548 11.33929,8.31548 0,0 4.24303,8.98848 5.29166,9.82738 6.88549,-5.55754 4.89419,-7.10313 3.02381,-15.11905 l -4.15774,-8.31547 c 7.91528,2.03139 11.32392,5.98815 16.23967,12.00056"
       id="path896"
       sodipodi:nodetypes="cccccc" />
    <path
       style="fill:#ffff00;fill-opacity:1;stroke:#000000;stroke-width:1.43622;stroke-opacity:0.457831"
       d="m 430.25519,920.91611 c -8.6627,-43.47883 -23.50469,-79.70431 -44.59987,-108.85678 -3.89763,-5.38633 -6.83121,-10.04871 -6.51907,-10.36085 0.6683,-0.6683 14.98221,4.13056 19.82528,6.64661 10.76138,5.59068 14.90517,10.96025 26.85949,34.80483 6.52295,13.01092 12.71043,24.3621 13.74997,25.22483 41.04345,-9.921 1.6794,-84.29021 2.26862,-85.80782 0.93264,0 8.5573,1.20116 15.19765,4.41527 9.91994,4.80153 12.93692,9.58428 23.49581,20.23405 l 12.85101,12.96164 -0.74886,7.98023 c -1.03276,11.00555 -12.85966,46.09482 -19.02443,56.44365 -5.02816,8.44082 -34.69127,47.7126 -38.30238,50.70956 -1.50369,1.24796 -2.50455,-1.60323 -5.05322,-14.39522 z"
       id="path900"
       transform="scale(0.26458333)"
       sodipodi:nodetypes="sssssccsscssss" />
    <path
       style="fill:#c83737;stroke:#000000;stroke-width:1.43622;stroke-opacity:0.457831"
       d="M 61.27552,550.92001 C 40.711637,508.18486 39.061037,503.33319 34.375755,471.85264 c -4.25809,-28.61023 -5.086198,-56.17277 -2.18897,-72.85714 2.596146,-14.95052 8.904911,-37.14286 10.558846,-37.14286 0.578959,0 2.491436,9.48215 4.249949,21.07143 4.32939,28.53237 8.977446,48.32639 15.332174,65.29297 7.010919,18.71856 13.595533,32.35313 15.158089,31.38742 0.691984,-0.42767 1.26451,-9.57893 1.27228,-20.33613 0.03603,-49.88212 6.811201,-99.84185 18.259343,-134.64339 3.422164,-10.40315 6.672674,-15.84786 23.684524,-39.67241 10.84489,-15.18791 20.02038,-27.31198 20.38999,-26.94238 0.36961,0.36961 -2.20271,14.72466 -5.71628,31.90011 -10.44469,51.05703 -15.17937,85.79789 -17.39778,127.65667 -0.75566,14.25834 -1.61028,19.29666 -4.24063,25 -7.78711,16.88471 -8.27676,41.6377 -1.44121,72.85714 3.62625,16.56187 6.03698,41.06956 3.78042,38.432 -0.60662,-0.70903 -4.9153,-6.67621 -9.57486,-13.2604 -4.65956,-6.5842 -10.471257,-13.65563 -12.91488,-15.71428 -2.443624,-2.05868 -8.473517,-10.81446 -13.399763,-19.45732 -14.976781,-26.27603 -23.00384,-39.28571 -24.239531,-39.28571 -0.646902,0 -2.595132,5.2587 -4.329402,11.68598 -5.311483,19.68462 -4.126483,27.8084 9.016506,61.81277 6.05826,15.67432 10.822584,29.07606 10.587386,29.78165 -0.235197,0.7056 -4.711093,-7.61885 -9.946436,-18.49875 z"
       id="path74"
       transform="scale(0.26458333)" />
    <path
       style="fill:#ff4500;stroke:#000000;stroke-width:1.43622;stroke-opacity:0.457831;fill-opacity:1"
       d="m 108.81499,541.58624 c -3.49668,-4.815 -9.238507,-12.0745 -12.759633,-16.13223 -3.521126,-4.05772 -13.517356,-19.1884 -22.213847,-33.62371 -8.69649,-14.43533 -16.527344,-26.46701 -17.401897,-26.73711 -1.913342,-0.59092 -4.001733,4.31335 -7.136706,16.75945 -3.181296,12.63 -1.962561,24.38702 4.422274,42.6613 2.844828,8.14229 4.912883,15.06369 4.59568,15.38089 -1.007738,1.00773 -12.014204,-24.24962 -15.82716,-36.31976 -8.504598,-26.92181 -13.066799,-86.32314 -8.306323,-108.151 2.327297,-10.67118 7.700061,-29.4756 8.261344,-28.91432 0.229704,0.2297 2.054878,10.04368 4.055941,21.80884 4.424656,26.01454 9.403367,46.85512 14.349041,60.06421 6.075557,16.22681 13.927185,32.04127 15.907979,32.04127 2.577731,0 3.14774,-5.24724 4.034843,-37.14286 0.882288,-31.72252 3.546395,-56.75103 8.895584,-83.57142 5.73601,-28.75989 10.613,-42.08307 21.16168,-57.81048 12.77679,-19.04938 27.89021,-39.45725 27.89021,-37.66057 0,0.82869 -1.6325,9.47011 -3.62778,19.20316 -9.69063,47.27133 -15.88964,91.92756 -18.61851,134.12357 -0.71438,11.04636 -2.11956,18.38684 -5.33265,27.85714 -3.948,11.63636 -4.36218,14.55598 -4.35733,30.71575 0.004,12.96178 1.02506,23.53575 3.725,38.57143 3.97008,22.10894 5.93079,35.74044 5.13103,35.67264 -0.27015,-0.0229 -3.3521,-3.98119 -6.84877,-8.79619 z"
       id="path76"
       transform="scale(0.26458333)" />
    <path
       style="fill:#aa4400;stroke:#000000;stroke-width:0.38;stroke-opacity:0.457831"
       d="m 128.96766,161.41544 c -0.84921,-2.54827 -1.54403,-4.85494 -1.54403,-5.12593 0,-0.271 0.97802,-0.92265 2.17336,-1.44812 11.33856,-4.98441 17.21578,-8.95214 24.74434,-16.70502 4.58063,-4.71711 7.01022,-8.22383 10.45814,-15.09461 1.72064,-3.42878 2.17858,-4.01861 4.7537,-6.12281 1.56729,-1.28069 2.84963,-2.17942 2.84963,-1.99717 0,0.18224 -0.50684,1.8308 -1.12632,3.66345 -0.61948,1.83266 -1.03466,3.48041 -0.92264,3.66168 0.44086,0.71332 1.7098,0.2272 5.89086,-2.25676 6.98598,-4.15033 7.65711,-4.68863 8.64993,-6.93787 l 0.88461,-2.00407 0.30857,2.26786 c 0.18013,1.32397 0.14539,3.75353 -0.0835,5.83747 -0.38667,3.52071 -0.42589,3.62046 -2.86357,7.28213 -5.50236,8.26521 -7.50229,10.20767 -18.1085,17.58823 -7.28375,5.06856 -26.98943,17.64939 -34.26921,21.87872 -0.13825,0.0803 -0.94617,-1.93891 -1.79539,-4.48718 z"
       id="path78" />
    <path
       style="fill:#ffff00;stroke:#000000;stroke-width:1.43622;stroke-opacity:0.457831"
       d="m 711.54708,447.99924 c 0.94131,-13.898 -0.048,-25.78515 -3.69892,-44.44285 -2.20597,-11.27352 -4.71224,-9.31745 -12.43894,9.70825 l -6.66522,16.412 -15.69083,9.56385 c -8.62995,5.26011 -15.88008,9.37458 -16.11139,9.14327 -0.23132,-0.23132 0.17765,-1.99403 0.90881,-3.91715 2.55816,-6.72845 4.80121,-25.70615 3.22467,-27.28271 -1.63338,-1.63337 -6.35423,1.51164 -20.80213,13.85837 -7.41253,6.33452 -8.34917,6.79273 -7.49676,3.66752 6.49486,-23.81252 7.35219,-31.86766 7.37428,-69.28572 0.0249,-42.17754 0.26339,-40.56765 -13.69662,-92.45319 -4.67609,-17.37975 -8.32379,-32.08875 -8.10601,-32.68667 0.81538,-2.23861 40.61068,54.19586 46.43767,65.85415 11.05967,22.12749 12.40341,29.7326 12.54961,71.02609 0.0701,19.81435 0.45974,36.35829 0.86577,36.76431 1.2571,1.25711 9.02266,-7.78317 21.82847,-25.41166 15.21213,-20.94104 21.91099,-32.72951 26.77975,-47.12625 2.07877,-6.14685 4.1052,-10.64685 4.50317,-10 2.56745,4.17302 4.19449,20.94921 3.42476,35.31217 -1.76237,32.88537 -7.17936,60.25464 -16.02345,80.95819 -7.44253,17.42258 -8.32665,17.46428 -7.16669,0.33803 z"
       id="path903"
       transform="scale(0.26458333)" />
    <path
       style="fill:#aa4400;stroke:#000000;stroke-width:1.43622;stroke-opacity:0.457831"
       d="m 488.75962,609.04239 c -2.90627,-8.72193 -4.94653,-16.73783 -4.53391,-17.8131 0.41263,-1.07529 10.59804,-6.75523 22.63426,-12.6221 25.42019,-12.39068 42.39114,-23.41709 60.63307,-39.39466 23.39298,-20.48922 41.36792,-43.31635 54.07571,-68.673 2.92145,-5.82936 6.91489,-13.02136 8.8743,-15.98224 3.44377,-5.2039 16.03136,-16.16471 17.21012,-14.98595 0.31847,0.31847 -0.79762,5.20159 -2.4802,10.85138 -4.84495,16.26842 -2.63386,17.62927 13.95288,8.58754 24.01852,-13.09292 34.78576,-21.1176 41.4536,-30.89481 1.52906,-2.24207 1.72777,0.0512 1.19033,13.73719 -0.35483,9.03572 -1.33887,18.23134 -2.18674,20.43472 -2.99617,7.78613 -20.97553,33.07193 -31.40504,44.16741 -13.186,14.02798 -30.38618,27.03941 -72.29115,54.68616 -33.29804,21.96834 -95.89543,61.47717 -99.7432,62.9537 -1.60518,0.61597 -3.3448,-2.93023 -7.38403,-15.05224 z"
       id="path905"
       transform="scale(0.26458333)" />
    <path
       style="fill:#d45500;stroke:#000000;stroke-width:1.43622;stroke-opacity:0.457831"
       d="m 712.84232,441.13836 c 0.0994,-17.702 -2.66225,-38.32873 -5.80185,-43.33457 -1.96982,-3.14073 -2.24499,-3.19558 -4.73358,-0.94342 -1.4532,1.31513 -5.35904,9.00664 -8.67964,17.09227 l -6.03746,14.70112 -13.42506,8.19251 c -7.38379,4.50589 -13.67786,7.93973 -13.98682,7.63076 -0.30896,-0.30896 0.0302,-3.11513 0.7538,-6.23592 0.72356,-3.1208 1.33089,-9.37061 1.34963,-13.88847 0.0297,-7.16467 -0.31701,-8.21428 -2.71364,-8.21428 -2.69971,0 -12.54092,6.71948 -20.66025,14.10663 l -4.12226,3.75051 1.05745,-4.28571 c 4.03851,-16.36746 4.94754,-28.02736 4.99437,-64.06131 0.0564,-43.40907 -0.27782,-45.83585 -12.71734,-92.33391 -3.88379,-14.51736 -6.83567,-26.62098 -6.55973,-26.89692 0.59114,-0.59114 24.55975,33.00083 34.22598,47.96765 9.19555,14.23806 14.77398,26.62 17.18523,38.1446 1.22309,5.84571 2.43577,24.13895 3.04585,45.94634 0.7191,25.7047 1.48968,36.23355 2.65183,36.23355 6.52829,0 38.5881,-45.73955 47.42955,-67.66747 5.9578,-14.77611 6.97701,-12.66215 6.79614,14.09604 -0.21381,31.63143 -6.54408,65.89027 -16.01296,86.6606 l -4.12744,9.05368 z"
       id="path907"
       transform="scale(0.26458333)" />
    <path
       style="fill:#ffff00;stroke:#000000;stroke-width:1.43622;stroke-opacity:0.457831"
       d="m 713.71603,435.42407 c -0.0911,-18.14941 -3.17445,-35.98018 -6.85889,-39.66463 -2.72219,-2.72219 -2.80029,-2.69739 -6.37948,2.02577 -1.99295,2.62995 -5.8615,10.246 -8.59677,16.92458 -5.25813,12.83852 -6.45479,14.07475 -22.69954,23.4503 l -6.70549,3.87002 0.27692,-13.30301 c 0.26189,-12.58076 0.11199,-13.32656 -2.76097,-13.73641 -1.90427,-0.27168 -6.63326,2.28792 -12.67278,6.85922 l -9.63488,7.29262 1.00323,-5.34766 c 3.77696,-20.13293 4.93547,-76.04556 2.06785,-99.79937 -0.85369,-7.07143 -4.74021,-25.30809 -8.63673,-40.52591 -3.89652,-15.21783 -6.79336,-27.95999 -6.43743,-28.31592 0.61065,-0.61065 13.43954,17.01107 26.19743,35.98469 7.56726,11.25408 15.26596,26.67748 18.12963,36.32051 2.08108,7.00775 3.07944,19.96662 5.71432,74.17274 0.64961,13.36416 1.95179,15.91835 6.49363,12.73712 7.95428,-5.5714 31.22319,-38.89079 42.3468,-60.63755 l 6.44132,-12.59282 -0.68021,27.14285 c -0.72949,29.10933 -3.30142,45.924 -10.14835,66.34746 -5.63198,16.79943 -6.37881,16.89139 -6.45961,0.7954 z"
       id="path909"
       transform="scale(0.26458333)" />
    <path
       style="fill:#ffff00;stroke:#000000;stroke-width:1.43622;stroke-opacity:0.457831"
       d="m 493.00945,617.0245 c -1.10953,-2.65547 -3.28503,-9.40281 -4.83445,-14.99407 l -2.81713,-10.16594 5.97878,-3.38403 c 3.28833,-1.8612 13.55873,-7.31407 22.82311,-12.11749 30.36361,-15.74294 48.79003,-29.35279 70.53198,-52.09527 15.57822,-16.2951 25.83283,-30.59969 37.57509,-52.41506 5.41491,-10.06008 11.32342,-18.84264 15.24201,-22.65607 3.51956,-3.42512 6.69794,-5.92876 7.06306,-5.56364 0.36512,0.36512 -0.24969,4.57988 -1.36626,9.36614 -3.7411,16.03671 0.45336,16.54167 24.22194,2.91607 14.0965,-8.08098 27.83216,-18.16281 31.38594,-23.03697 2.16175,-2.96492 2.24585,-2.20513 1.30952,11.83162 -1.17626,17.63374 -2.31814,20.34675 -17.1839,40.82699 -19.05894,26.25711 -39.11393,42.76574 -99.95407,82.27906 -38.28345,24.86362 -85.07309,54.0368 -86.66736,54.0368 -0.71001,0 -2.19873,-2.17265 -3.30826,-4.82814 z"
       id="path911"
       transform="scale(0.26458333)" />
    <path
       style="fill:#d45500;stroke:#000000;stroke-width:1.43622;stroke-opacity:0.457831"
       d="m 663.44247,426.4955 -0.41276,-12.5 -4.00735,0.27973 c -2.20405,0.15386 -7.18768,2.56457 -11.07474,5.35714 -3.88706,2.79259 -7.27207,5.07742 -7.52225,5.07742 -0.25017,0 0.0484,-3.375 0.66349,-7.5 0.61509,-4.125 1.55073,-22.28572 2.07921,-40.35715 1.15255,-39.41193 -0.14993,-53.51594 -8.02543,-86.90359 -3.1264,-13.25414 -5.68436,-24.7145 -5.68436,-25.46745 0,-2.74104 2.58232,0.41216 13.87762,16.94561 13.48996,19.74588 22.40387,36.78818 25.36146,48.48803 1.17095,4.63212 3.09125,25.24278 4.30257,46.17965 2.40368,41.54578 3.02663,44.04918 9.84898,39.57901 1.95909,-1.28364 5.30158,-4.61463 7.42775,-7.40217 2.12617,-2.78756 4.12414,-4.80991 4.43993,-4.49412 0.31579,0.31579 -1.78373,5.5417 -4.6656,11.61315 -4.81853,10.15154 -6.02056,11.54407 -14.9521,17.32185 -5.34179,3.45559 -10.05689,6.28289 -10.478,6.28289 -0.42111,0 -0.9514,-5.625 -1.17842,-12.5 z"
       id="path913"
       transform="scale(0.26458333)" />
    <path
       style="fill:#d45500;stroke:#000000;stroke-width:1.43622;stroke-opacity:0.457831"
       d="m 715.2891,434.45601 c -0.1628,-11.33138 -2.8465,-29.53363 -5.17659,-35.11031 -1.07572,-2.57456 -3.26711,-5.16609 -4.86975,-5.75894 -2.78658,-1.03083 -2.68236,-1.41995 2.38533,-8.90602 2.91457,-4.30545 9.07883,-14.25667 13.69835,-22.11381 l 8.39913,-14.28572 -0.92772,21.42858 c -1.33995,30.95054 -5.21899,54.19351 -11.39993,68.30773 l -1.99228,4.54941 z"
       id="path915"
       transform="scale(0.26458333)" />
    <path
       style="fill:none;stroke:#000000;stroke-width:0.264583px;stroke-linecap:butt;stroke-linejoin:miter;stroke-opacity:1"
       d="m 148.92262,205.99703 c 2.36164,-0.37496 4.04039,0.0604 5.96007,-1.26857 1.83256,-0.89632 3.75139,-2.61113 4.00905,-4.54359 l -1e-5,3.74178 -1.46998,2.67269 c -0.89118,1.12666 -2.00452,1.61996 -2.00452,3.0736"
       id="path910"
       sodipodi:nodetypes="cccccc" />
    <path
       style="fill:#ff5555;stroke:#000000;stroke-width:0.507781;stroke-opacity:0.457831"
       d="m 531.27377,835.57698 c 0,-0.19746 3.45823,-5.38713 7.68495,-11.53262 16.30419,-23.70561 20.2839,-29.90246 23.71458,-36.92623 1.89791,-3.88564 3.45073,-7.32245 3.45073,-7.63735 0,-0.36513 1.85421,-0.704 5.11849,-0.93542 7.06654,-0.501 10.05086,-1.388 15.41925,-4.58294 5.31618,-3.16387 9.81653,-7.07081 11.87504,-10.30921 l 1.42733,-2.24546 v 4.38654 c 0,4.3768 -0.006,4.39803 -2.83835,9.56906 -1.73571,3.16921 -3.97156,6.3598 -5.75538,8.21298 -3.02208,3.1396 -4.53825,5.55766 -4.53825,7.23785 0,0.59818 -1.12157,1.81229 -2.90419,3.14379 -1.5973,1.19308 -13.55759,10.7095 -26.57843,21.14761 -27.63606,22.15436 -26.07577,20.92943 -26.07577,20.4714 z"
       id="path912"
       transform="scale(0.26458333)" />
    <path
       style="fill:#ff5555;stroke:#000000;stroke-width:0.507781;stroke-opacity:0.457831"
       d="m 539.40546,824.36124 c 13.9945,-20.43833 20.05979,-29.95758 23.72336,-37.23293 l 3.82332,-7.59259 5.4328,-0.60487 c 6.09067,-0.67812 7.81764,-1.14796 12.17438,-3.31216 4.42919,-2.20019 8.77138,-5.43108 12.03113,-8.952 l 2.86862,-3.09845 -0.005,2.93298 c -0.007,4.30956 -3.20601,10.57849 -8.58402,16.82258 -2.81874,3.27266 -4.5384,5.98222 -4.54103,7.155 -10e-4,0.50418 -10.53163,9.2616 -26.26733,21.84455 -14.44599,11.55165 -26.38454,21.003 -26.5301,21.003 -0.14556,0 2.49771,-4.0343 5.87392,-8.96511 z"
       id="path914"
       transform="scale(0.26458333)" />
    <path
       style="fill:#ff5555;stroke:#000000;stroke-width:0.507781;stroke-opacity:0.457831"
       d="m 536.36757,830.03365 c 0.11523,-0.28001 4.54881,-6.98362 9.85242,-14.89691 11.0902,-16.54724 14.73773,-22.46626 18.47335,-29.97755 2.335,-4.69504 2.83144,-5.3713 3.94495,-5.3739 0.7006,-0.002 3.54666,-0.34499 6.32458,-0.76299 7.78055,-1.17077 13.91945,-4.38502 20.58186,-10.7764 l 3.40926,-3.27058 v 1.57915 c 0,3.72005 -3.32881,9.90429 -10.00534,18.58781 -1.30296,1.69465 -2.7426,3.77332 -3.19918,4.61927 -0.94367,1.74841 -8.70225,8.28642 -30.48458,25.68878 -17.43486,13.92907 -19.18336,15.27842 -18.89732,14.58332 z"
       id="path916"
       transform="scale(0.26458333)" />
    <path
       style="fill:#ff5555;stroke:#000000;stroke-width:0.507781;stroke-opacity:0.457831"
       d="m 588.85247,789.45283 c 0,-0.62537 1.81006,-2.95482 4.56623,-5.8765 1.31028,-1.38896 3.65996,-4.85752 5.2215,-7.7079 l 2.83917,-5.18253 v -7.06557 c 0,-6.00815 -0.11575,-7.06558 -0.77346,-7.06558 -0.42541,0 -0.89781,0.39775 -1.04978,0.88389 -1.81919,5.81936 -6.10966,10.61009 -13.37457,14.93404 -5.30894,3.15978 -8.32107,4.10785 -14.75348,4.64367 l -4.39221,0.36587 0.80611,-1.95371 c 2.33529,-5.65988 13.53697,-26.89018 16.63287,-31.5239 11.91509,-17.83371 26.97461,-31.52137 47.71418,-43.3676 7.44969,-4.25519 35.74512,-18.35409 36.38657,-18.13051 0.24394,0.085 -5.39994,4.11324 -12.54195,8.95159 -26.64066,18.04772 -33.94124,24.61432 -38.97496,35.05654 -3.97443,8.24477 -6.97187,23.57596 -4.77427,24.41925 1.873,0.71874 5.56652,-2.12345 18.25269,-14.04555 9.32684,-8.76511 21.08004,-18.7375 41.3004,-35.04269 19.21843,-15.49726 30.12703,-24.56639 37.62391,-31.27957 2.35889,-2.11229 4.35775,-3.63389 4.44194,-3.38134 0.19523,0.5857 -4.11613,12.27383 -7.19917,19.51696 -3.63958,8.55064 -12.41764,26.28664 -15.32635,30.96676 -4.43031,7.12837 -10.14434,14.19508 -17.26195,21.34837 -11.84763,11.90701 -18.82956,16.45654 -38.13879,24.85179 -19.13407,8.31909 -31.85947,15.33677 -44.26185,24.4091 -2.43616,1.78205 -2.96278,2.00869 -2.96278,1.27512 z"
       id="path918"
       transform="scale(0.26458333)" />
    <path
       style="fill:#ffaaaa;stroke:#000000;stroke-width:0.507781;stroke-opacity:0.457831"
       d="m 538.84991,827.62088 c 0,-0.1684 4.5353,-7.21658 10.07845,-15.66262 5.54314,-8.44604 11.43173,-17.83261 13.08574,-20.85903 1.65401,-3.02643 3.65314,-6.63623 4.4425,-8.02179 l 1.4352,-2.5192 5.73314,-0.8906 c 8.81238,-1.36894 14.27988,-3.95414 20.84178,-9.85463 1.93081,-1.7362 3.63474,-3.15673 3.78651,-3.15673 0.5822,0 -0.50549,3.42225 -2.08687,6.56599 -0.90828,1.80565 -3.99002,6.55083 -6.84831,10.54484 -6.06411,8.47362 -6.6902,9.04657 -32.03285,29.3139 -9.16714,7.33125 -17.06527,13.67076 -17.5514,14.08781 -0.48614,0.41704 -0.88389,0.62047 -0.88389,0.45206 z"
       id="path920"
       transform="scale(0.26458333)" />
    <path
       style="fill:#ff5555;stroke:#000000;stroke-width:0.507781;stroke-opacity:0.457831"
       d="m 541.69996,824.10871 c 0.21136,-0.34724 3.47931,-5.40432 7.26212,-11.23795 8.03756,-12.39506 12.90447,-20.3269 16.61213,-27.07362 l 2.66546,-4.85026 4.37175,-0.63842 c 8.7654,-1.28005 15.13633,-4.06525 21.29181,-9.3082 1.80565,-1.53797 3.35368,-2.59153 3.44009,-2.34125 0.24813,0.71877 -2.57787,6.09703 -5.48575,10.44011 -4.9307,7.36429 -8.95485,12.10364 -13.94738,16.42624 -5.94277,5.14532 -35.834,29.21469 -36.28109,29.21469 -0.17238,0 -0.14049,-0.2841 0.0709,-0.63134 z"
       id="path922"
       transform="scale(0.26458333)" />
    <path
       style="fill:#ff2a2a;stroke:#000000;stroke-width:0.507781;stroke-opacity:0.457831"
       d=""
       id="path924"
       transform="scale(0.26458333)" />
    <path
       style="fill:#ff5555;stroke:#000000;stroke-width:0.507781;stroke-opacity:0.457831"
       d="m 590.36769,787.97286 c 0,-0.24854 0.48227,-0.88487 1.0717,-1.41406 1.93966,-1.74143 5.30925,-6.4427 7.94853,-11.08988 l 2.59653,-4.57188 -0.008,-6.79234 c -0.004,-3.73578 -0.20859,-7.10955 -0.4541,-7.49728 -0.77478,-1.2236 -1.88028,-0.23977 -3.44117,3.06247 -0.83147,1.75908 -2.46856,4.27405 -3.63797,5.58884 -2.60375,2.92744 -10.05557,7.98774 -13.85757,9.41025 -2.90923,1.08849 -11.73163,2.46204 -12.28156,1.91211 -0.64183,-0.64183 12.81622,-26.46151 17.3616,-33.30874 11.32856,-17.06552 28.88457,-32.51445 49.90608,-43.91633 8.75896,-4.75078 26.58638,-13.61043 26.85216,-13.34465 0.12466,0.12466 -3.82051,3.0083 -8.76706,6.40809 -26.5958,18.2794 -34.11327,25.65778 -38.5625,37.84897 -3.10967,8.5207 -4.77739,18.584 -3.38508,20.42616 1.59896,2.11555 4.03078,0.44166 18.37009,-12.64472 13.1617,-12.01167 19.45296,-17.3805 38.57489,-32.91904 20.23195,-16.44054 32.13473,-26.29826 39.08379,-32.36869 6.05928,-5.29315 5.89056,-5.4335 2.9756,2.47533 -4.9247,13.36167 -17.07185,38.5346 -21.99748,45.58607 -4.59825,6.58281 -10.77082,13.71674 -17.25798,19.94586 -10.96455,10.52841 -15.45568,13.33521 -37.14912,23.21689 -18.57193,8.45979 -26.59562,12.76593 -37.36187,20.05131 -6.7632,4.57656 -6.57977,4.46684 -6.57977,3.93526 z"
       id="path926"
       transform="scale(0.26458333)" />
    <path
       style="fill:#ffaaaa;stroke:#000000;stroke-width:0.507781;stroke-opacity:0.457831"
       d="m 594.85881,783.27249 c 1.07262,-1.41718 3.22833,-4.71139 4.79047,-7.32047 l 2.84025,-4.74378 -0.0503,-6.44286 c -0.0581,-7.43549 -0.35176,-8.96824 -1.7182,-8.96824 -0.66831,0 -1.67161,1.19725 -3.26023,3.89049 -1.26216,2.13977 -3.09033,4.71884 -4.0626,5.73127 -2.52665,2.63099 -7.40218,6.02345 -11.23317,7.81619 -3.27071,1.53055 -12.22921,3.4622 -12.90813,2.78328 -0.43877,-0.43878 8.78922,-18.72094 13.65653,-27.05584 10.02921,-17.17424 24.65385,-31.74669 44.09046,-43.93312 6.94629,-4.3552 27.74215,-15.31939 28.54734,-15.051 0.29454,0.0982 -1.9038,1.86038 -4.8852,3.91599 -17.49661,12.06357 -28.25555,21.54819 -32.40597,28.56771 -5.24767,8.87527 -9.21199,26.20563 -6.59559,28.8332 1.85261,1.86052 4.01936,0.3636 19.2507,-13.29957 14.97242,-13.43089 19.49778,-17.27062 43.29524,-36.73553 11.52836,-9.42952 24.67412,-20.29638 29.21279,-24.14858 4.53867,-3.8522 8.33075,-6.92538 8.42685,-6.82928 0.30866,0.30866 -6.58415,17.07464 -10.343,25.15817 -5.76095,12.38914 -11.56013,22.85544 -15.90059,28.69726 -2.3784,3.20107 -7.61649,8.99847 -12.87945,14.25464 -11.54253,11.52768 -16.36227,14.81994 -32.89632,22.4708 -24.32342,11.25527 -30.07252,14.23734 -40.00894,20.75276 -3.55075,2.32826 -6.55878,4.2332 -6.68451,4.2332 -0.12573,0 0.649,-1.15951 1.72162,-2.57669 z"
       id="path928"
       transform="scale(0.26458333)" />
    <path
       style="fill:#ff8080;stroke:#000000;stroke-width:0.507781;stroke-opacity:0.457831"
       d="m 543.90068,822.02583 c 0,-0.17189 3.02948,-5.02951 6.73219,-10.79471 5.83155,-9.07988 11.98102,-19.21787 16.66215,-27.46914 1.21676,-2.14474 1.52846,-2.3683 3.74,-2.68244 9.02873,-1.28246 15.78225,-3.9549 21.85846,-8.64963 2.02528,-1.56481 3.53716,-2.46681 3.35973,-2.00444 -0.65879,1.71677 -4.36232,7.72465 -7.25744,11.77305 -6.18938,8.65493 -10.5148,12.61084 -36.00372,32.92812 -9.7257,7.75238 -9.09137,7.27101 -9.09137,6.89919 z"
       id="path930"
       transform="scale(0.26458333)" />
    <path
       style="fill:#ff8080;stroke:#000000;stroke-width:0.507781;stroke-opacity:0.457831"
       d="m 547.74795,816.7851 c 5.06579,-7.91817 11.23522,-17.91552 15.97298,-25.88367 l 5.25457,-8.83735 5.26653,-1.07093 c 7.34099,-1.49276 14.21316,-4.38844 18.59519,-7.83535 0.67112,-0.52791 1.3282,-0.85185 1.46018,-0.71987 0.37812,0.37812 -4.14908,7.387 -7.91799,12.25843 -3.81672,4.93323 -7.09743,8.13228 -15.99376,15.59568 -7.82973,6.5686 -23.84102,19.39725 -24.20948,19.39725 -0.15743,0 0.54988,-1.30689 1.57178,-2.90419 z"
       id="path932"
       transform="scale(0.26458333)" />
    <path
       style="fill:#ff5555;stroke:#000000;stroke-width:0.507781;stroke-opacity:0.457831"
       d="m 595.41846,783.48114 c 0,-0.18169 0.31711,-0.68916 0.70469,-1.12773 0.38759,-0.43856 2.09222,-3.05945 3.78808,-5.82421 l 3.08337,-5.02682 -0.0291,-5.83232 c -0.0405,-8.11339 -0.39173,-9.83224 -2.04865,-10.02552 -1.14732,-0.13383 -1.69596,0.42928 -4.46145,4.57917 -3.45153,5.17935 -6.72072,8.17155 -12.2343,11.19772 -4.7415,2.60241 -14.05645,5.12218 -14.05645,3.80239 0,-0.88736 10.32629,-21.06925 13.61648,-26.61231 10.17189,-17.13679 26.18849,-32.69905 45.72999,-44.43275 6.11606,-3.67239 19.92307,-10.95434 20.21554,-10.66186 0.11564,0.11564 -1.92823,1.73033 -4.54195,3.58821 -11.89576,8.4557 -21.73262,17.18555 -25.87858,22.96629 -4.38516,6.11424 -8.0743,17.07405 -8.58446,25.50298 -0.26035,4.30148 -0.18247,5.05759 0.61126,5.93465 0.50029,0.55281 1.30603,1.00511 1.79053,1.00511 1.638,0 6.43406,-3.74837 18.75688,-14.65946 16.86389,-14.93191 19.55216,-17.21214 42.58256,-36.11916 11.11168,-9.12223 23.49868,-19.34044 27.52666,-22.70713 4.02798,-3.36669 7.63206,-6.30725 8.00906,-6.53457 0.98427,-0.59348 0.62083,0.40803 -4.50012,12.40085 -7.83709,18.35378 -15.59681,32.85656 -21.7691,40.68602 -4.76481,6.04411 -19.74638,20.68213 -24.82669,24.25738 -5.13905,3.61659 -11.12827,6.73432 -29.36972,15.28859 -14.29959,6.70575 -20.38466,9.93546 -28.68495,15.22482 -2.98627,1.903 -5.42957,3.31134 -5.42957,3.12966 z"
       id="path934"
       transform="scale(0.26458333)" />
    <path
       style="fill:#ffd42a;stroke:#000000;stroke-width:0.71811;stroke-opacity:0.457831"
       d="m 493.73864,513.32281 c 0,-2.97414 -2.00151,-9.3416 -4.02256,-12.79707 -2.16188,-3.69625 -8.29073,-9.46496 -12.04887,-11.34085 -1.57143,-0.78439 -2.9875,-1.50295 -3.14683,-1.5968 -0.15933,-0.0939 1.308,-1.86171 3.26072,-3.92857 6.38712,-6.76046 9.52897,-14.09399 9.52897,-22.24198 v -4.29619 l 2.32143,2.2443 c 1.27678,1.23437 4.1731,3.09043 6.43627,4.12458 l 4.11484,1.88027 24.45659,-0.19379 c 23.2753,-0.18444 24.61183,-0.12374 27.67087,1.2566 6.10557,2.75505 5.97378,3.00519 -4.48197,8.50771 -17.10771,9.00322 -30.46674,18.68286 -47.617,34.50215 -6.27187,5.78512 -6.47246,5.90536 -6.47246,3.87964 z"
       id="path921"
       transform="scale(0.26458333)" />
    <path
       style="fill:#ffd42a;stroke:#000000;stroke-width:0.71811;stroke-opacity:0.457831"
       d="m 493.91501,509.72793 c -0.43205,-1.86877 -1.44988,-4.94614 -2.26185,-6.8386 -1.73664,-4.0476 -8.42312,-11.31571 -12.73617,-13.84405 l -3.03593,-1.77969 1.46147,-1.89629 c 0.8038,-1.04296 2.73476,-3.50343 4.29102,-5.46771 3.47422,-4.38513 5.61998,-9.89039 6.1761,-15.84572 0.23171,-2.48128 0.55696,-4.51143 0.7228,-4.51143 0.16583,0 1.3247,0.76686 2.57528,1.70413 1.25057,0.93727 3.62703,2.3837 5.28103,3.21429 2.89031,1.45143 3.98085,1.51016 28.04349,1.51016 24.20118,0 25.14623,0.0517 28.33389,1.55007 3.95127,1.85732 4.25716,1.52571 -7.24179,7.85067 -15.0605,8.28399 -27.91043,17.48687 -41.32881,29.59896 -10.10997,9.12575 -9.35123,8.7748 -10.28053,4.75521 z"
       id="path923"
       transform="scale(0.26458333)" />
  </g>
</svg>
